<mxfile host="app.diagrams.net" modified="2024-04-28T00:47:06.744Z" agent="Mozilla/5.0 (Windows NT 10.0; Win64; x64) AppleWebKit/537.36 (KHTML, like Gecko) Chrome/124.0.0.0 Safari/537.36" etag="Cy6ZstUY_FdXQmq6h2Og" version="24.3.1" type="google">
  <diagram name="Page-1" id="ykUU19PWJPYP3kKmz12H">
    <mxGraphModel grid="1" page="1" gridSize="10" guides="1" tooltips="1" connect="1" arrows="1" fold="1" pageScale="1" pageWidth="827" pageHeight="1169" math="0" shadow="0">
      <root>
        <mxCell id="0" />
        <mxCell id="1" parent="0" />
        <mxCell id="ch3_BCZH1UjnnqEeqbbo-1" value="&lt;font style=&quot;font-size: 24px;&quot;&gt;&lt;b&gt;Patients&lt;/b&gt;&lt;/font&gt;" style="rounded=1;whiteSpace=wrap;html=1;fillColor=#CDA2BE;" vertex="1" parent="1">
          <mxGeometry x="-170" y="190" width="170" height="70" as="geometry" />
        </mxCell>
        <mxCell id="ch3_BCZH1UjnnqEeqbbo-2" value="&lt;font style=&quot;font-size: 18px;&quot;&gt;&lt;u&gt;Patient_ID&lt;/u&gt;&lt;/font&gt;" style="ellipse;whiteSpace=wrap;html=1;fillColor=#FFFFCC;" vertex="1" parent="1">
          <mxGeometry x="-413" y="380" width="120" height="80" as="geometry" />
        </mxCell>
        <mxCell id="ch3_BCZH1UjnnqEeqbbo-3" value="&lt;font style=&quot;font-size: 18px;&quot;&gt;Patient_Name&lt;/font&gt;" style="ellipse;whiteSpace=wrap;html=1;fillColor=#FFFFCC;" vertex="1" parent="1">
          <mxGeometry x="-460" y="280" width="150" height="80" as="geometry" />
        </mxCell>
        <mxCell id="ch3_BCZH1UjnnqEeqbbo-4" value="&lt;font style=&quot;font-size: 18px;&quot;&gt;Patient_Address&lt;/font&gt;" style="ellipse;whiteSpace=wrap;html=1;fillColor=#FFFFCC;" vertex="1" parent="1">
          <mxGeometry x="-440" y="160" width="150" height="80" as="geometry" />
        </mxCell>
        <mxCell id="ch3_BCZH1UjnnqEeqbbo-5" value="&lt;font style=&quot;font-size: 18px;&quot;&gt;Date_admitted&lt;/font&gt;" style="ellipse;whiteSpace=wrap;html=1;fillColor=#FFFFCC;" vertex="1" parent="1">
          <mxGeometry x="-460" y="60" width="140" height="80" as="geometry" />
        </mxCell>
        <mxCell id="ch3_BCZH1UjnnqEeqbbo-6" value="&lt;font style=&quot;font-size: 18px;&quot;&gt;Date_discharged&lt;/font&gt;" style="ellipse;whiteSpace=wrap;html=1;fillColor=#FFFFCC;" vertex="1" parent="1">
          <mxGeometry x="-460" y="-40" width="167" height="80" as="geometry" />
        </mxCell>
        <mxCell id="ch3_BCZH1UjnnqEeqbbo-7" value="&lt;font style=&quot;font-size: 18px;&quot;&gt;City&lt;/font&gt;" style="ellipse;whiteSpace=wrap;html=1;fillColor=#FFFFCC;" vertex="1" parent="1">
          <mxGeometry x="-660" y="230" width="120" height="80" as="geometry" />
        </mxCell>
        <mxCell id="ch3_BCZH1UjnnqEeqbbo-8" value="&lt;font style=&quot;font-size: 18px;&quot;&gt;Street&lt;/font&gt;" style="ellipse;whiteSpace=wrap;html=1;fillColor=#FFFFCC;" vertex="1" parent="1">
          <mxGeometry x="-670" y="130" width="120" height="80" as="geometry" />
        </mxCell>
        <mxCell id="ch3_BCZH1UjnnqEeqbbo-9" value="&lt;font style=&quot;font-size: 18px;&quot;&gt;Zip_code&lt;/font&gt;" style="ellipse;whiteSpace=wrap;html=1;fillColor=#FFFFCC;" vertex="1" parent="1">
          <mxGeometry x="-670" y="30" width="120" height="80" as="geometry" />
        </mxCell>
        <mxCell id="ch3_BCZH1UjnnqEeqbbo-10" value="&lt;font style=&quot;font-size: 18px;&quot;&gt;Patient_Gender&lt;/font&gt;" style="ellipse;whiteSpace=wrap;html=1;fillColor=#FFFFCC;" vertex="1" parent="1">
          <mxGeometry x="-340" y="-120" width="140" height="90" as="geometry" />
        </mxCell>
        <mxCell id="ch3_BCZH1UjnnqEeqbbo-11" value="&lt;font style=&quot;font-size: 18px;&quot;&gt;Room_NO&lt;/font&gt;" style="ellipse;whiteSpace=wrap;html=1;fillColor=#FFFFCC;" vertex="1" parent="1">
          <mxGeometry x="-190" y="-150" width="140" height="100" as="geometry" />
        </mxCell>
        <mxCell id="ch3_BCZH1UjnnqEeqbbo-12" value="&lt;font style=&quot;font-size: 18px;&quot;&gt;Problem&lt;/font&gt;" style="ellipse;whiteSpace=wrap;html=1;fillColor=#FFFFCC;" vertex="1" parent="1">
          <mxGeometry x="170" y="-170" width="120" height="80" as="geometry" />
        </mxCell>
        <mxCell id="ch3_BCZH1UjnnqEeqbbo-13" value="&lt;font style=&quot;font-size: 18px;&quot;&gt;Category&lt;/font&gt;" style="ellipse;whiteSpace=wrap;html=1;fillColor=#FFFFCC;" vertex="1" parent="1">
          <mxGeometry x="140" y="-50" width="120" height="80" as="geometry" />
        </mxCell>
        <mxCell id="ch3_BCZH1UjnnqEeqbbo-14" value="" style="endArrow=none;html=1;rounded=0;exitX=0.963;exitY=0.212;exitDx=0;exitDy=0;exitPerimeter=0;" edge="1" parent="1" source="ch3_BCZH1UjnnqEeqbbo-2">
          <mxGeometry width="50" height="50" relative="1" as="geometry">
            <mxPoint x="-200" y="310" as="sourcePoint" />
            <mxPoint x="-150" y="260" as="targetPoint" />
          </mxGeometry>
        </mxCell>
        <mxCell id="ch3_BCZH1UjnnqEeqbbo-15" value="" style="endArrow=none;html=1;rounded=0;exitX=0.962;exitY=0.191;exitDx=0;exitDy=0;exitPerimeter=0;" edge="1" parent="1" source="ch3_BCZH1UjnnqEeqbbo-3">
          <mxGeometry width="50" height="50" relative="1" as="geometry">
            <mxPoint x="-220" y="290" as="sourcePoint" />
            <mxPoint x="-170" y="240" as="targetPoint" />
          </mxGeometry>
        </mxCell>
        <mxCell id="ch3_BCZH1UjnnqEeqbbo-16" value="" style="endArrow=none;html=1;rounded=0;entryX=1;entryY=0.5;entryDx=0;entryDy=0;" edge="1" parent="1" target="ch3_BCZH1UjnnqEeqbbo-4">
          <mxGeometry width="50" height="50" relative="1" as="geometry">
            <mxPoint x="-170" y="195" as="sourcePoint" />
            <mxPoint x="-120" y="145" as="targetPoint" />
          </mxGeometry>
        </mxCell>
        <mxCell id="ch3_BCZH1UjnnqEeqbbo-17" value="" style="endArrow=none;html=1;rounded=0;entryX=1.007;entryY=0.705;entryDx=0;entryDy=0;entryPerimeter=0;" edge="1" parent="1" target="ch3_BCZH1UjnnqEeqbbo-5">
          <mxGeometry width="50" height="50" relative="1" as="geometry">
            <mxPoint x="-150" y="190" as="sourcePoint" />
            <mxPoint x="-100" y="140" as="targetPoint" />
          </mxGeometry>
        </mxCell>
        <mxCell id="ch3_BCZH1UjnnqEeqbbo-18" value="" style="endArrow=none;html=1;rounded=0;entryX=1;entryY=1;entryDx=0;entryDy=0;" edge="1" parent="1" target="ch3_BCZH1UjnnqEeqbbo-6">
          <mxGeometry width="50" height="50" relative="1" as="geometry">
            <mxPoint x="-140" y="190" as="sourcePoint" />
            <mxPoint x="-90" y="140" as="targetPoint" />
          </mxGeometry>
        </mxCell>
        <mxCell id="ch3_BCZH1UjnnqEeqbbo-19" value="" style="endArrow=none;html=1;rounded=0;entryX=0.426;entryY=1.012;entryDx=0;entryDy=0;entryPerimeter=0;" edge="1" parent="1" target="ch3_BCZH1UjnnqEeqbbo-10">
          <mxGeometry width="50" height="50" relative="1" as="geometry">
            <mxPoint x="-100" y="190" as="sourcePoint" />
            <mxPoint x="-50" y="140" as="targetPoint" />
          </mxGeometry>
        </mxCell>
        <mxCell id="ch3_BCZH1UjnnqEeqbbo-20" value="" style="endArrow=none;html=1;rounded=0;entryX=0;entryY=1;entryDx=0;entryDy=0;" edge="1" parent="1" target="ch3_BCZH1UjnnqEeqbbo-11">
          <mxGeometry width="50" height="50" relative="1" as="geometry">
            <mxPoint x="-40" y="190" as="sourcePoint" />
            <mxPoint x="10" y="140" as="targetPoint" />
          </mxGeometry>
        </mxCell>
        <mxCell id="ch3_BCZH1UjnnqEeqbbo-21" value="" style="endArrow=none;html=1;rounded=0;entryX=0.036;entryY=0.641;entryDx=0;entryDy=0;entryPerimeter=0;" edge="1" parent="1" target="ch3_BCZH1UjnnqEeqbbo-12">
          <mxGeometry width="50" height="50" relative="1" as="geometry">
            <mxPoint x="-10" y="190" as="sourcePoint" />
            <mxPoint x="40" y="140" as="targetPoint" />
          </mxGeometry>
        </mxCell>
        <mxCell id="ch3_BCZH1UjnnqEeqbbo-22" value="" style="endArrow=none;html=1;rounded=0;entryX=0;entryY=0.5;entryDx=0;entryDy=0;" edge="1" parent="1" target="ch3_BCZH1UjnnqEeqbbo-13">
          <mxGeometry width="50" height="50" relative="1" as="geometry">
            <mxPoint y="230" as="sourcePoint" />
            <mxPoint x="50" y="180" as="targetPoint" />
          </mxGeometry>
        </mxCell>
        <mxCell id="ch3_BCZH1UjnnqEeqbbo-23" value="" style="endArrow=none;html=1;rounded=0;exitX=1.002;exitY=0.302;exitDx=0;exitDy=0;exitPerimeter=0;" edge="1" parent="1" source="ch3_BCZH1UjnnqEeqbbo-7">
          <mxGeometry width="50" height="50" relative="1" as="geometry">
            <mxPoint x="-480" y="270" as="sourcePoint" />
            <mxPoint x="-430" y="220" as="targetPoint" />
          </mxGeometry>
        </mxCell>
        <mxCell id="ch3_BCZH1UjnnqEeqbbo-24" value="" style="endArrow=none;html=1;rounded=0;exitX=1;exitY=0.5;exitDx=0;exitDy=0;" edge="1" parent="1" source="ch3_BCZH1UjnnqEeqbbo-8">
          <mxGeometry width="50" height="50" relative="1" as="geometry">
            <mxPoint x="-490" y="240" as="sourcePoint" />
            <mxPoint x="-440" y="190" as="targetPoint" />
          </mxGeometry>
        </mxCell>
        <mxCell id="ch3_BCZH1UjnnqEeqbbo-25" value="" style="endArrow=none;html=1;rounded=0;exitX=0;exitY=0;exitDx=0;exitDy=0;entryX=1;entryY=1;entryDx=0;entryDy=0;" edge="1" parent="1" source="ch3_BCZH1UjnnqEeqbbo-4" target="ch3_BCZH1UjnnqEeqbbo-9">
          <mxGeometry width="50" height="50" relative="1" as="geometry">
            <mxPoint x="-490" y="160" as="sourcePoint" />
            <mxPoint x="-440" y="110" as="targetPoint" />
          </mxGeometry>
        </mxCell>
        <mxCell id="ch3_BCZH1UjnnqEeqbbo-29" value="" style="endArrow=none;html=1;rounded=0;entryX=0;entryY=0.5;entryDx=0;entryDy=0;" edge="1" parent="1">
          <mxGeometry width="50" height="50" relative="1" as="geometry">
            <mxPoint y="240" as="sourcePoint" />
            <mxPoint x="170" y="95" as="targetPoint" />
          </mxGeometry>
        </mxCell>
        <mxCell id="ch3_BCZH1UjnnqEeqbbo-30" value="" style="ellipse;whiteSpace=wrap;html=1;fillColor=#FFFFCC;" vertex="1" parent="1">
          <mxGeometry x="170" y="50" width="140" height="90" as="geometry" />
        </mxCell>
        <mxCell id="ch3_BCZH1UjnnqEeqbbo-31" value="&lt;font style=&quot;font-size: 18px;&quot;&gt;Contact_NO&lt;/font&gt;" style="ellipse;whiteSpace=wrap;html=1;fillColor=#FFFFCC;" vertex="1" parent="1">
          <mxGeometry x="180" y="55" width="120" height="80" as="geometry" />
        </mxCell>
        <mxCell id="ch3_BCZH1UjnnqEeqbbo-33" value="&lt;font style=&quot;font-size: 18px;&quot;&gt;Treats&lt;/font&gt;" style="rhombus;whiteSpace=wrap;html=1;fillColor=#FFCCCC;" vertex="1" parent="1">
          <mxGeometry x="280" y="180" width="160" height="110" as="geometry" />
        </mxCell>
        <mxCell id="ch3_BCZH1UjnnqEeqbbo-34" value="&lt;font style=&quot;font-size: 24px;&quot;&gt;&lt;b&gt;Doctors&lt;/b&gt;&lt;/font&gt;" style="rounded=1;whiteSpace=wrap;html=1;fillColor=#CDA2BE;" vertex="1" parent="1">
          <mxGeometry x="760" y="200" width="170" height="70" as="geometry" />
        </mxCell>
        <mxCell id="ch3_BCZH1UjnnqEeqbbo-35" value="" style="endArrow=none;html=1;rounded=0;entryX=0;entryY=0.5;entryDx=0;entryDy=0;exitX=1;exitY=0.5;exitDx=0;exitDy=0;" edge="1" parent="1" source="ch3_BCZH1UjnnqEeqbbo-33" target="ch3_BCZH1UjnnqEeqbbo-34">
          <mxGeometry width="50" height="50" relative="1" as="geometry">
            <mxPoint x="440" y="240" as="sourcePoint" />
            <mxPoint x="490" y="190" as="targetPoint" />
          </mxGeometry>
        </mxCell>
        <mxCell id="ch3_BCZH1UjnnqEeqbbo-36" value="&lt;font style=&quot;font-size: 18px;&quot;&gt;&lt;u&gt;Doctor_ID&lt;/u&gt;&lt;/font&gt;" style="ellipse;whiteSpace=wrap;html=1;fillColor=#FFFFCC;" vertex="1" parent="1">
          <mxGeometry x="560" y="80" width="120" height="80" as="geometry" />
        </mxCell>
        <mxCell id="ch3_BCZH1UjnnqEeqbbo-37" value="&lt;font style=&quot;font-size: 18px;&quot;&gt;Doctor_Name&lt;/font&gt;" style="ellipse;whiteSpace=wrap;html=1;fillColor=#FFFFCC;" vertex="1" parent="1">
          <mxGeometry x="550" y="-20" width="140" height="80" as="geometry" />
        </mxCell>
        <mxCell id="ch3_BCZH1UjnnqEeqbbo-38" value="&lt;font style=&quot;font-size: 18px;&quot;&gt;Doctor_Address&lt;/font&gt;" style="ellipse;whiteSpace=wrap;html=1;fillColor=#FFFFCC;" vertex="1" parent="1">
          <mxGeometry x="650" y="-110" width="140" height="80" as="geometry" />
        </mxCell>
        <mxCell id="ch3_BCZH1UjnnqEeqbbo-39" value="&lt;font style=&quot;font-size: 18px;&quot;&gt;Spec_ID&lt;/font&gt;" style="ellipse;whiteSpace=wrap;html=1;fillColor=#FFFFCC;" vertex="1" parent="1">
          <mxGeometry x="800" y="-140" width="120" height="80" as="geometry" />
        </mxCell>
        <mxCell id="ch3_BCZH1UjnnqEeqbbo-40" value="&lt;font style=&quot;font-size: 18px;&quot;&gt;Experience_year&lt;/font&gt;" style="ellipse;whiteSpace=wrap;html=1;fillColor=#FFFFCC;" vertex="1" parent="1">
          <mxGeometry x="940" y="-140" width="160" height="90" as="geometry" />
        </mxCell>
        <mxCell id="ch3_BCZH1UjnnqEeqbbo-41" value="&lt;font style=&quot;font-size: 18px;&quot;&gt;City&lt;/font&gt;" style="ellipse;whiteSpace=wrap;html=1;fillColor=#FFFFCC;" vertex="1" parent="1">
          <mxGeometry x="460" y="-150" width="120" height="80" as="geometry" />
        </mxCell>
        <mxCell id="ch3_BCZH1UjnnqEeqbbo-42" value="&lt;font style=&quot;font-size: 18px;&quot;&gt;Street&lt;/font&gt;" style="ellipse;whiteSpace=wrap;html=1;fillColor=#FFFFCC;" vertex="1" parent="1">
          <mxGeometry x="500" y="-250" width="120" height="80" as="geometry" />
        </mxCell>
        <mxCell id="ch3_BCZH1UjnnqEeqbbo-43" value="&lt;font style=&quot;font-size: 18px;&quot;&gt;Zip_code&lt;/font&gt;" style="ellipse;whiteSpace=wrap;html=1;fillColor=#FFFFCC;" vertex="1" parent="1">
          <mxGeometry x="630" y="-310" width="120" height="80" as="geometry" />
        </mxCell>
        <mxCell id="ch3_BCZH1UjnnqEeqbbo-44" value="" style="endArrow=none;html=1;rounded=0;exitX=1;exitY=0.5;exitDx=0;exitDy=0;entryX=0;entryY=0.295;entryDx=0;entryDy=0;entryPerimeter=0;" edge="1" parent="1" source="ch3_BCZH1UjnnqEeqbbo-41" target="ch3_BCZH1UjnnqEeqbbo-38">
          <mxGeometry width="50" height="50" relative="1" as="geometry">
            <mxPoint x="620" y="-30" as="sourcePoint" />
            <mxPoint x="670" y="-80" as="targetPoint" />
          </mxGeometry>
        </mxCell>
        <mxCell id="ch3_BCZH1UjnnqEeqbbo-45" value="" style="endArrow=none;html=1;rounded=0;exitX=0.22;exitY=0.052;exitDx=0;exitDy=0;exitPerimeter=0;" edge="1" parent="1" source="ch3_BCZH1UjnnqEeqbbo-38" target="ch3_BCZH1UjnnqEeqbbo-42">
          <mxGeometry width="50" height="50" relative="1" as="geometry">
            <mxPoint x="690" y="-100" as="sourcePoint" />
            <mxPoint x="740" y="-150" as="targetPoint" />
          </mxGeometry>
        </mxCell>
        <mxCell id="ch3_BCZH1UjnnqEeqbbo-46" value="" style="endArrow=none;html=1;rounded=0;entryX=0.5;entryY=1;entryDx=0;entryDy=0;" edge="1" parent="1" target="ch3_BCZH1UjnnqEeqbbo-43">
          <mxGeometry width="50" height="50" relative="1" as="geometry">
            <mxPoint x="720" y="-110" as="sourcePoint" />
            <mxPoint x="770" y="-160" as="targetPoint" />
          </mxGeometry>
        </mxCell>
        <mxCell id="ch3_BCZH1UjnnqEeqbbo-48" value="" style="endArrow=none;html=1;rounded=0;entryX=0.284;entryY=1.002;entryDx=0;entryDy=0;entryPerimeter=0;" edge="1" parent="1">
          <mxGeometry width="50" height="50" relative="1" as="geometry">
            <mxPoint x="920" y="200" as="sourcePoint" />
            <mxPoint x="1023" y="70" as="targetPoint" />
          </mxGeometry>
        </mxCell>
        <mxCell id="ch3_BCZH1UjnnqEeqbbo-49" value="" style="endArrow=none;html=1;rounded=0;exitX=0.75;exitY=0;exitDx=0;exitDy=0;" edge="1" parent="1" source="ch3_BCZH1UjnnqEeqbbo-34">
          <mxGeometry width="50" height="50" relative="1" as="geometry">
            <mxPoint x="860" y="190" as="sourcePoint" />
            <mxPoint x="970" y="-60" as="targetPoint" />
          </mxGeometry>
        </mxCell>
        <mxCell id="ch3_BCZH1UjnnqEeqbbo-50" value="" style="endArrow=none;html=1;rounded=0;entryX=0.5;entryY=1;entryDx=0;entryDy=0;" edge="1" parent="1" target="ch3_BCZH1UjnnqEeqbbo-39">
          <mxGeometry width="50" height="50" relative="1" as="geometry">
            <mxPoint x="860" y="200" as="sourcePoint" />
            <mxPoint x="910" y="150" as="targetPoint" />
          </mxGeometry>
        </mxCell>
        <mxCell id="ch3_BCZH1UjnnqEeqbbo-51" value="" style="endArrow=none;html=1;rounded=0;exitX=0.328;exitY=-0.027;exitDx=0;exitDy=0;exitPerimeter=0;" edge="1" parent="1" source="ch3_BCZH1UjnnqEeqbbo-34" target="ch3_BCZH1UjnnqEeqbbo-38">
          <mxGeometry width="50" height="50" relative="1" as="geometry">
            <mxPoint x="710" y="190" as="sourcePoint" />
            <mxPoint x="760" y="140" as="targetPoint" />
          </mxGeometry>
        </mxCell>
        <mxCell id="ch3_BCZH1UjnnqEeqbbo-52" value="" style="endArrow=none;html=1;rounded=0;exitX=0.113;exitY=-0.01;exitDx=0;exitDy=0;exitPerimeter=0;" edge="1" parent="1" source="ch3_BCZH1UjnnqEeqbbo-34" target="ch3_BCZH1UjnnqEeqbbo-37">
          <mxGeometry width="50" height="50" relative="1" as="geometry">
            <mxPoint x="780" y="190" as="sourcePoint" />
            <mxPoint x="810" y="160" as="targetPoint" />
          </mxGeometry>
        </mxCell>
        <mxCell id="ch3_BCZH1UjnnqEeqbbo-53" value="" style="endArrow=none;html=1;rounded=0;" edge="1" parent="1" target="ch3_BCZH1UjnnqEeqbbo-36">
          <mxGeometry width="50" height="50" relative="1" as="geometry">
            <mxPoint x="760" y="220" as="sourcePoint" />
            <mxPoint x="810" y="170" as="targetPoint" />
          </mxGeometry>
        </mxCell>
        <mxCell id="ch3_BCZH1UjnnqEeqbbo-55" value="" style="endArrow=none;html=1;rounded=0;entryX=0.152;entryY=0.65;entryDx=0;entryDy=0;entryPerimeter=0;" edge="1" parent="1" target="ch3_BCZH1UjnnqEeqbbo-33">
          <mxGeometry width="50" height="50" relative="1" as="geometry">
            <mxPoint y="250" as="sourcePoint" />
            <mxPoint x="50" y="200" as="targetPoint" />
          </mxGeometry>
        </mxCell>
        <mxCell id="ch3_BCZH1UjnnqEeqbbo-56" value="" style="ellipse;whiteSpace=wrap;html=1;fillColor=#FFFFCC;" vertex="1" parent="1">
          <mxGeometry x="1010" y="-20" width="160" height="110" as="geometry" />
        </mxCell>
        <mxCell id="ch3_BCZH1UjnnqEeqbbo-57" value="&lt;font style=&quot;font-size: 18px;&quot;&gt;Contact_NO&lt;/font&gt;" style="ellipse;whiteSpace=wrap;html=1;fillColor=#FFFFCC;" vertex="1" parent="1">
          <mxGeometry x="1025" y="-5" width="130" height="80" as="geometry" />
        </mxCell>
        <mxCell id="ch3_BCZH1UjnnqEeqbbo-58" value="" style="endArrow=none;html=1;rounded=0;entryX=0;entryY=0.5;entryDx=0;entryDy=0;" edge="1" parent="1" target="ch3_BCZH1UjnnqEeqbbo-33">
          <mxGeometry width="50" height="50" relative="1" as="geometry">
            <mxPoint y="240" as="sourcePoint" />
            <mxPoint x="50" y="190" as="targetPoint" />
          </mxGeometry>
        </mxCell>
        <mxCell id="ch3_BCZH1UjnnqEeqbbo-59" value="&lt;font style=&quot;font-size: 24px;&quot;&gt;&lt;b&gt;M&lt;/b&gt;&lt;/font&gt;" style="text;html=1;align=center;verticalAlign=middle;whiteSpace=wrap;rounded=0;" vertex="1" parent="1">
          <mxGeometry x="210" y="190" width="60" height="30" as="geometry" />
        </mxCell>
        <mxCell id="ch3_BCZH1UjnnqEeqbbo-60" value="&lt;font style=&quot;font-size: 24px;&quot;&gt;&lt;b&gt;N&lt;/b&gt;&lt;/font&gt;" style="text;html=1;align=center;verticalAlign=middle;whiteSpace=wrap;rounded=0;" vertex="1" parent="1">
          <mxGeometry x="470" y="190" width="60" height="30" as="geometry" />
        </mxCell>
        <mxCell id="ch3_BCZH1UjnnqEeqbbo-61" value="&lt;font style=&quot;font-size: 18px;&quot;&gt;Has&lt;/font&gt;" style="rhombus;whiteSpace=wrap;html=1;fillColor=#FFCCCC;" vertex="1" parent="1">
          <mxGeometry x="-140" y="450" width="140" height="110" as="geometry" />
        </mxCell>
        <mxCell id="ch3_BCZH1UjnnqEeqbbo-62" value="&lt;font style=&quot;font-size: 24px;&quot;&gt;&lt;b&gt;Disease&lt;/b&gt;&lt;/font&gt;" style="rounded=1;whiteSpace=wrap;html=1;fillColor=#CDA2BE;" vertex="1" parent="1">
          <mxGeometry x="-130" y="680" width="165" height="70" as="geometry" />
        </mxCell>
        <mxCell id="ch3_BCZH1UjnnqEeqbbo-63" value="" style="endArrow=none;html=1;rounded=0;entryX=0.5;entryY=1;entryDx=0;entryDy=0;exitX=0.418;exitY=0.121;exitDx=0;exitDy=0;exitPerimeter=0;" edge="1" parent="1" source="ch3_BCZH1UjnnqEeqbbo-61">
          <mxGeometry width="50" height="50" relative="1" as="geometry">
            <mxPoint x="-80" y="450" as="sourcePoint" />
            <mxPoint x="-85" y="260" as="targetPoint" />
          </mxGeometry>
        </mxCell>
        <mxCell id="ch3_BCZH1UjnnqEeqbbo-64" value="" style="endArrow=none;html=1;rounded=0;entryX=0.588;entryY=1.031;entryDx=0;entryDy=0;entryPerimeter=0;" edge="1" parent="1">
          <mxGeometry width="50" height="50" relative="1" as="geometry">
            <mxPoint x="-70" y="450" as="sourcePoint" />
            <mxPoint x="-70" y="262" as="targetPoint" />
          </mxGeometry>
        </mxCell>
        <mxCell id="ch3_BCZH1UjnnqEeqbbo-65" value="" style="endArrow=none;html=1;rounded=0;entryX=0.5;entryY=1;entryDx=0;entryDy=0;exitX=0.357;exitY=-0.01;exitDx=0;exitDy=0;exitPerimeter=0;" edge="1" parent="1" source="ch3_BCZH1UjnnqEeqbbo-62" target="ch3_BCZH1UjnnqEeqbbo-61">
          <mxGeometry width="50" height="50" relative="1" as="geometry">
            <mxPoint x="-90" y="670" as="sourcePoint" />
            <mxPoint x="-40" y="620" as="targetPoint" />
          </mxGeometry>
        </mxCell>
        <mxCell id="ch3_BCZH1UjnnqEeqbbo-66" value="&lt;font style=&quot;font-size: 18px;&quot;&gt;&lt;u&gt;Dis_ID&lt;/u&gt;&lt;/font&gt;" style="ellipse;whiteSpace=wrap;html=1;fillColor=#FFFFCC;" vertex="1" parent="1">
          <mxGeometry x="-210" y="820" width="120" height="80" as="geometry" />
        </mxCell>
        <mxCell id="ch3_BCZH1UjnnqEeqbbo-67" value="&lt;font style=&quot;font-size: 18px;&quot;&gt;Dis_Name&lt;/font&gt;" style="ellipse;whiteSpace=wrap;html=1;fillColor=#FFFFCC;" vertex="1" parent="1">
          <mxGeometry x="-30" y="810" width="120" height="80" as="geometry" />
        </mxCell>
        <mxCell id="ch3_BCZH1UjnnqEeqbbo-68" value="" style="endArrow=none;html=1;rounded=0;entryX=0.25;entryY=1;entryDx=0;entryDy=0;" edge="1" parent="1" target="ch3_BCZH1UjnnqEeqbbo-62">
          <mxGeometry width="50" height="50" relative="1" as="geometry">
            <mxPoint x="-140" y="820" as="sourcePoint" />
            <mxPoint x="-90" y="770" as="targetPoint" />
          </mxGeometry>
        </mxCell>
        <mxCell id="ch3_BCZH1UjnnqEeqbbo-69" value="" style="endArrow=none;html=1;rounded=0;entryX=0.655;entryY=0.986;entryDx=0;entryDy=0;entryPerimeter=0;" edge="1" parent="1" target="ch3_BCZH1UjnnqEeqbbo-62">
          <mxGeometry width="50" height="50" relative="1" as="geometry">
            <mxPoint x="30" y="810" as="sourcePoint" />
            <mxPoint x="80" y="760" as="targetPoint" />
          </mxGeometry>
        </mxCell>
        <mxCell id="ch3_BCZH1UjnnqEeqbbo-70" value="&lt;font style=&quot;font-size: 24px;&quot;&gt;&lt;b&gt;M&lt;/b&gt;&lt;/font&gt;" style="text;html=1;align=center;verticalAlign=middle;whiteSpace=wrap;rounded=0;" vertex="1" parent="1">
          <mxGeometry x="-70" y="420" width="60" height="30" as="geometry" />
        </mxCell>
        <mxCell id="ch3_BCZH1UjnnqEeqbbo-71" value="&lt;font style=&quot;font-size: 24px;&quot;&gt;&lt;b&gt;N&lt;/b&gt;&lt;/font&gt;" style="text;html=1;align=center;verticalAlign=middle;whiteSpace=wrap;rounded=0;" vertex="1" parent="1">
          <mxGeometry x="-60" y="580" width="60" height="30" as="geometry" />
        </mxCell>
        <mxCell id="ch3_BCZH1UjnnqEeqbbo-72" value="&lt;font style=&quot;font-size: 24px;&quot;&gt;&lt;b&gt;Nurses&lt;/b&gt;&lt;/font&gt;" style="rounded=1;whiteSpace=wrap;html=1;fillColor=#CDA2BE;" vertex="1" parent="1">
          <mxGeometry x="910" y="1070" width="170" height="70" as="geometry" />
        </mxCell>
        <mxCell id="ch3_BCZH1UjnnqEeqbbo-73" value="&lt;font style=&quot;font-size: 18px;&quot;&gt;&lt;u&gt;Nurse_ID&lt;/u&gt;&lt;/font&gt;" style="ellipse;whiteSpace=wrap;html=1;fillColor=#FFFFCC;" vertex="1" parent="1">
          <mxGeometry x="790" y="1230" width="120" height="80" as="geometry" />
        </mxCell>
        <mxCell id="ch3_BCZH1UjnnqEeqbbo-74" value="&lt;font style=&quot;font-size: 18px;&quot;&gt;Nurse_Name&lt;/font&gt;" style="ellipse;whiteSpace=wrap;html=1;fillColor=#FFFFCC;" vertex="1" parent="1">
          <mxGeometry x="1010" y="1230" width="140" height="90" as="geometry" />
        </mxCell>
        <mxCell id="ch3_BCZH1UjnnqEeqbbo-75" value="" style="endArrow=none;html=1;rounded=0;exitX=0.643;exitY=-0.012;exitDx=0;exitDy=0;exitPerimeter=0;" edge="1" parent="1" source="ch3_BCZH1UjnnqEeqbbo-73">
          <mxGeometry width="50" height="50" relative="1" as="geometry">
            <mxPoint x="900" y="1190" as="sourcePoint" />
            <mxPoint x="950" y="1140" as="targetPoint" />
          </mxGeometry>
        </mxCell>
        <mxCell id="ch3_BCZH1UjnnqEeqbbo-76" value="" style="endArrow=none;html=1;rounded=0;" edge="1" parent="1">
          <mxGeometry width="50" height="50" relative="1" as="geometry">
            <mxPoint x="1080" y="1230" as="sourcePoint" />
            <mxPoint x="1060" y="1140" as="targetPoint" />
          </mxGeometry>
        </mxCell>
        <mxCell id="ch3_BCZH1UjnnqEeqbbo-77" value="&lt;font style=&quot;font-size: 24px;&quot;&gt;&lt;b&gt;Houses&lt;/b&gt;&lt;/font&gt;" style="rounded=1;whiteSpace=wrap;html=1;fillColor=#CDA2BE;" vertex="1" parent="1">
          <mxGeometry x="1940" y="530" width="170" height="70" as="geometry" />
        </mxCell>
        <mxCell id="ch3_BCZH1UjnnqEeqbbo-78" value="&lt;font style=&quot;font-size: 18px;&quot;&gt;assists&lt;/font&gt;" style="rhombus;whiteSpace=wrap;html=1;fillColor=#FFCCCC;" vertex="1" parent="1">
          <mxGeometry x="1500" y="490" width="165" height="130" as="geometry" />
        </mxCell>
        <mxCell id="ch3_BCZH1UjnnqEeqbbo-79" value="&lt;font style=&quot;font-size: 18px;&quot;&gt;Patient_ID&lt;/font&gt;" style="ellipse;whiteSpace=wrap;html=1;fillColor=#FFFFCC;" vertex="1" parent="1">
          <mxGeometry x="1522.5" y="330" width="120" height="80" as="geometry" />
        </mxCell>
        <mxCell id="ch3_BCZH1UjnnqEeqbbo-80" value="&lt;font style=&quot;font-size: 18px;&quot;&gt;&lt;u&gt;House_ID&lt;/u&gt;&lt;/font&gt;" style="ellipse;whiteSpace=wrap;html=1;fillColor=#FFFFCC;" vertex="1" parent="1">
          <mxGeometry x="1970" y="360" width="120" height="80" as="geometry" />
        </mxCell>
        <mxCell id="ch3_BCZH1UjnnqEeqbbo-81" value="&lt;font style=&quot;font-size: 18px;&quot;&gt;Patient_Address&lt;/font&gt;" style="ellipse;whiteSpace=wrap;html=1;fillColor=#FFFFCC;" vertex="1" parent="1">
          <mxGeometry x="2235" y="520" width="150" height="80" as="geometry" />
        </mxCell>
        <mxCell id="ch3_BCZH1UjnnqEeqbbo-82" value="&lt;font style=&quot;font-size: 18px;&quot;&gt;City&lt;/font&gt;" style="ellipse;whiteSpace=wrap;html=1;fillColor=#FFFFCC;" vertex="1" parent="1">
          <mxGeometry x="2470" y="540" width="120" height="80" as="geometry" />
        </mxCell>
        <mxCell id="ch3_BCZH1UjnnqEeqbbo-83" value="&lt;font style=&quot;font-size: 18px;&quot;&gt;Street&lt;/font&gt;" style="ellipse;whiteSpace=wrap;html=1;fillColor=#FFFFCC;" vertex="1" parent="1">
          <mxGeometry x="2450" y="440" width="120" height="80" as="geometry" />
        </mxCell>
        <mxCell id="ch3_BCZH1UjnnqEeqbbo-84" value="&lt;font style=&quot;font-size: 18px;&quot;&gt;Zip_code&lt;/font&gt;" style="ellipse;whiteSpace=wrap;html=1;fillColor=#FFFFCC;" vertex="1" parent="1">
          <mxGeometry x="2340" y="365" width="120" height="80" as="geometry" />
        </mxCell>
        <mxCell id="ch3_BCZH1UjnnqEeqbbo-85" value="" style="endArrow=none;html=1;rounded=0;entryX=0.5;entryY=1;entryDx=0;entryDy=0;" edge="1" parent="1" target="ch3_BCZH1UjnnqEeqbbo-80">
          <mxGeometry width="50" height="50" relative="1" as="geometry">
            <mxPoint x="2030" y="530" as="sourcePoint" />
            <mxPoint x="2080" y="480" as="targetPoint" />
          </mxGeometry>
        </mxCell>
        <mxCell id="ch3_BCZH1UjnnqEeqbbo-86" value="" style="endArrow=none;html=1;rounded=0;entryX=0;entryY=0.5;entryDx=0;entryDy=0;exitX=1;exitY=0.5;exitDx=0;exitDy=0;" edge="1" parent="1" source="ch3_BCZH1UjnnqEeqbbo-77" target="ch3_BCZH1UjnnqEeqbbo-81">
          <mxGeometry width="50" height="50" relative="1" as="geometry">
            <mxPoint x="2110" y="580" as="sourcePoint" />
            <mxPoint x="2160" y="530" as="targetPoint" />
          </mxGeometry>
        </mxCell>
        <mxCell id="ch3_BCZH1UjnnqEeqbbo-87" value="" style="endArrow=none;html=1;rounded=0;entryX=0;entryY=1;entryDx=0;entryDy=0;" edge="1" parent="1" target="ch3_BCZH1UjnnqEeqbbo-84">
          <mxGeometry width="50" height="50" relative="1" as="geometry">
            <mxPoint x="2310" y="520" as="sourcePoint" />
            <mxPoint x="2360" y="470" as="targetPoint" />
          </mxGeometry>
        </mxCell>
        <mxCell id="ch3_BCZH1UjnnqEeqbbo-88" value="" style="endArrow=none;html=1;rounded=0;entryX=-0.014;entryY=0.686;entryDx=0;entryDy=0;entryPerimeter=0;" edge="1" parent="1" target="ch3_BCZH1UjnnqEeqbbo-83">
          <mxGeometry width="50" height="50" relative="1" as="geometry">
            <mxPoint x="2380" y="540" as="sourcePoint" />
            <mxPoint x="2430" y="490" as="targetPoint" />
          </mxGeometry>
        </mxCell>
        <mxCell id="ch3_BCZH1UjnnqEeqbbo-89" value="" style="endArrow=none;html=1;rounded=0;entryX=0;entryY=0.671;entryDx=0;entryDy=0;entryPerimeter=0;exitX=0.914;exitY=0.757;exitDx=0;exitDy=0;exitPerimeter=0;" edge="1" parent="1" source="ch3_BCZH1UjnnqEeqbbo-81" target="ch3_BCZH1UjnnqEeqbbo-82">
          <mxGeometry width="50" height="50" relative="1" as="geometry">
            <mxPoint x="2370" y="590" as="sourcePoint" />
            <mxPoint x="2420" y="540" as="targetPoint" />
          </mxGeometry>
        </mxCell>
        <mxCell id="ch3_BCZH1UjnnqEeqbbo-90" value="" style="endArrow=none;html=1;rounded=0;entryX=0.5;entryY=1;entryDx=0;entryDy=0;" edge="1" parent="1" target="ch3_BCZH1UjnnqEeqbbo-79">
          <mxGeometry width="50" height="50" relative="1" as="geometry">
            <mxPoint x="1580" y="490" as="sourcePoint" />
            <mxPoint x="1630" y="440" as="targetPoint" />
          </mxGeometry>
        </mxCell>
        <mxCell id="ch3_BCZH1UjnnqEeqbbo-91" value="&lt;font style=&quot;font-size: 18px;&quot;&gt;assists&lt;/font&gt;" style="rhombus;whiteSpace=wrap;html=1;fillColor=#FFCCCC;" vertex="1" parent="1">
          <mxGeometry x="1500" y="770" width="165" height="130" as="geometry" />
        </mxCell>
        <mxCell id="ch3_BCZH1UjnnqEeqbbo-92" value="&lt;font style=&quot;font-size: 24px;&quot;&gt;&lt;b&gt;Students&lt;/b&gt;&lt;/font&gt;" style="rounded=1;whiteSpace=wrap;html=1;fillColor=#CDA2BE;" vertex="1" parent="1">
          <mxGeometry x="1950" y="814.5" width="170" height="70" as="geometry" />
        </mxCell>
        <mxCell id="ch3_BCZH1UjnnqEeqbbo-93" value="&lt;font style=&quot;font-size: 18px;&quot;&gt;Category&lt;/font&gt;" style="ellipse;whiteSpace=wrap;html=1;fillColor=#FFFFCC;" vertex="1" parent="1">
          <mxGeometry x="2230" y="930" width="145" height="80" as="geometry" />
        </mxCell>
        <mxCell id="ch3_BCZH1UjnnqEeqbbo-94" value="&lt;font style=&quot;font-size: 18px;&quot;&gt;Student_Name&lt;/font&gt;" style="ellipse;whiteSpace=wrap;html=1;fillColor=#FFFFCC;" vertex="1" parent="1">
          <mxGeometry x="2305" y="804.5" width="150" height="80" as="geometry" />
        </mxCell>
        <mxCell id="ch3_BCZH1UjnnqEeqbbo-95" value="&lt;font style=&quot;font-size: 18px;&quot;&gt;&lt;u&gt;Student_ID&lt;/u&gt;&lt;/font&gt;" style="ellipse;whiteSpace=wrap;html=1;fillColor=#FFFFCC;" vertex="1" parent="1">
          <mxGeometry x="2310" y="690" width="140" height="80" as="geometry" />
        </mxCell>
        <mxCell id="ch3_BCZH1UjnnqEeqbbo-96" value="&lt;font style=&quot;font-size: 24px;&quot;&gt;&lt;b&gt;Social Services&lt;/b&gt;&lt;/font&gt;" style="rounded=1;whiteSpace=wrap;html=1;fillColor=#CDA2BE;" vertex="1" parent="1">
          <mxGeometry x="1920" y="1100" width="210" height="70" as="geometry" />
        </mxCell>
        <mxCell id="ch3_BCZH1UjnnqEeqbbo-97" value="&lt;font style=&quot;font-size: 18px;&quot;&gt;&lt;u&gt;Service_ID&lt;/u&gt;&lt;/font&gt;" style="ellipse;whiteSpace=wrap;html=1;fillColor=#FFFFCC;" vertex="1" parent="1">
          <mxGeometry x="2255" y="1080" width="150" height="80" as="geometry" />
        </mxCell>
        <mxCell id="ch3_BCZH1UjnnqEeqbbo-98" value="&lt;font style=&quot;font-size: 18px;&quot;&gt;Service_Name&lt;/font&gt;" style="ellipse;whiteSpace=wrap;html=1;fillColor=#FFFFCC;" vertex="1" parent="1">
          <mxGeometry x="2220" y="1250" width="150" height="80" as="geometry" />
        </mxCell>
        <mxCell id="ch3_BCZH1UjnnqEeqbbo-99" value="&lt;font style=&quot;font-size: 18px;&quot;&gt;serves&lt;/font&gt;" style="rhombus;whiteSpace=wrap;html=1;fillColor=#FFCCCC;" vertex="1" parent="1">
          <mxGeometry x="1500" y="1070" width="165" height="130" as="geometry" />
        </mxCell>
        <mxCell id="ch3_BCZH1UjnnqEeqbbo-100" value="&lt;font style=&quot;font-size: 18px;&quot;&gt;day_of_service&lt;/font&gt;" style="ellipse;whiteSpace=wrap;html=1;fillColor=#FFFFCC;" vertex="1" parent="1">
          <mxGeometry x="1510" y="1280" width="157.5" height="80" as="geometry" />
        </mxCell>
        <mxCell id="ch3_BCZH1UjnnqEeqbbo-101" value="" style="endArrow=none;html=1;rounded=0;entryX=0;entryY=0.5;entryDx=0;entryDy=0;" edge="1" parent="1" target="ch3_BCZH1UjnnqEeqbbo-95">
          <mxGeometry width="50" height="50" relative="1" as="geometry">
            <mxPoint x="2120" y="810" as="sourcePoint" />
            <mxPoint x="2160" y="760" as="targetPoint" />
          </mxGeometry>
        </mxCell>
        <mxCell id="ch3_BCZH1UjnnqEeqbbo-102" value="" style="endArrow=none;html=1;rounded=0;" edge="1" parent="1">
          <mxGeometry width="50" height="50" relative="1" as="geometry">
            <mxPoint x="2120" y="840" as="sourcePoint" />
            <mxPoint x="2300" y="840" as="targetPoint" />
          </mxGeometry>
        </mxCell>
        <mxCell id="ch3_BCZH1UjnnqEeqbbo-103" value="" style="endArrow=none;html=1;rounded=0;entryX=0.021;entryY=0.338;entryDx=0;entryDy=0;entryPerimeter=0;exitX=1;exitY=0.936;exitDx=0;exitDy=0;exitPerimeter=0;" edge="1" parent="1" source="ch3_BCZH1UjnnqEeqbbo-92" target="ch3_BCZH1UjnnqEeqbbo-93">
          <mxGeometry width="50" height="50" relative="1" as="geometry">
            <mxPoint x="2090" y="870" as="sourcePoint" />
            <mxPoint x="2140" y="820" as="targetPoint" />
          </mxGeometry>
        </mxCell>
        <mxCell id="ch3_BCZH1UjnnqEeqbbo-104" value="" style="endArrow=none;html=1;rounded=0;entryX=0;entryY=0.5;entryDx=0;entryDy=0;" edge="1" parent="1" target="ch3_BCZH1UjnnqEeqbbo-97">
          <mxGeometry width="50" height="50" relative="1" as="geometry">
            <mxPoint x="2130" y="1110" as="sourcePoint" />
            <mxPoint x="2180" y="1060" as="targetPoint" />
          </mxGeometry>
        </mxCell>
        <mxCell id="ch3_BCZH1UjnnqEeqbbo-105" value="" style="endArrow=none;html=1;rounded=0;exitX=0.051;exitY=0.338;exitDx=0;exitDy=0;exitPerimeter=0;" edge="1" parent="1" source="ch3_BCZH1UjnnqEeqbbo-98">
          <mxGeometry width="50" height="50" relative="1" as="geometry">
            <mxPoint x="2070" y="1220" as="sourcePoint" />
            <mxPoint x="2120" y="1170" as="targetPoint" />
          </mxGeometry>
        </mxCell>
        <mxCell id="ch3_BCZH1UjnnqEeqbbo-106" value="" style="endArrow=none;html=1;rounded=0;entryX=0.5;entryY=1;entryDx=0;entryDy=0;exitX=0.431;exitY=-0.021;exitDx=0;exitDy=0;exitPerimeter=0;" edge="1" parent="1" source="ch3_BCZH1UjnnqEeqbbo-100" target="ch3_BCZH1UjnnqEeqbbo-99">
          <mxGeometry width="50" height="50" relative="1" as="geometry">
            <mxPoint x="1570" y="1320" as="sourcePoint" />
            <mxPoint x="1620" y="1270" as="targetPoint" />
          </mxGeometry>
        </mxCell>
        <mxCell id="ch3_BCZH1UjnnqEeqbbo-107" value="" style="endArrow=none;html=1;rounded=0;entryX=0;entryY=0.25;entryDx=0;entryDy=0;" edge="1" parent="1" target="ch3_BCZH1UjnnqEeqbbo-77">
          <mxGeometry width="50" height="50" relative="1" as="geometry">
            <mxPoint x="1660" y="550" as="sourcePoint" />
            <mxPoint x="1710" y="500" as="targetPoint" />
          </mxGeometry>
        </mxCell>
        <mxCell id="ch3_BCZH1UjnnqEeqbbo-108" value="" style="endArrow=none;html=1;rounded=0;exitX=0.97;exitY=0.615;exitDx=0;exitDy=0;exitPerimeter=0;entryX=0;entryY=0.5;entryDx=0;entryDy=0;" edge="1" parent="1" source="ch3_BCZH1UjnnqEeqbbo-78" target="ch3_BCZH1UjnnqEeqbbo-77">
          <mxGeometry width="50" height="50" relative="1" as="geometry">
            <mxPoint x="1680" y="670" as="sourcePoint" />
            <mxPoint x="1730" y="620" as="targetPoint" />
          </mxGeometry>
        </mxCell>
        <mxCell id="ch3_BCZH1UjnnqEeqbbo-109" value="" style="endArrow=none;html=1;rounded=0;entryX=0;entryY=0.5;entryDx=0;entryDy=0;" edge="1" parent="1" target="ch3_BCZH1UjnnqEeqbbo-78">
          <mxGeometry width="50" height="50" relative="1" as="geometry">
            <mxPoint x="1050" y="1070" as="sourcePoint" />
            <mxPoint x="1100" y="1020" as="targetPoint" />
          </mxGeometry>
        </mxCell>
        <mxCell id="ch3_BCZH1UjnnqEeqbbo-110" value="" style="endArrow=none;html=1;rounded=0;entryX=0;entryY=0.5;entryDx=0;entryDy=0;" edge="1" parent="1" target="ch3_BCZH1UjnnqEeqbbo-91">
          <mxGeometry width="50" height="50" relative="1" as="geometry">
            <mxPoint x="1080" y="1090" as="sourcePoint" />
            <mxPoint x="1130" y="1040" as="targetPoint" />
          </mxGeometry>
        </mxCell>
        <mxCell id="ch3_BCZH1UjnnqEeqbbo-111" value="" style="endArrow=none;html=1;rounded=0;entryX=0;entryY=0.25;entryDx=0;entryDy=0;" edge="1" parent="1" target="ch3_BCZH1UjnnqEeqbbo-92">
          <mxGeometry width="50" height="50" relative="1" as="geometry">
            <mxPoint x="1660" y="830" as="sourcePoint" />
            <mxPoint x="1710" y="780" as="targetPoint" />
          </mxGeometry>
        </mxCell>
        <mxCell id="ch3_BCZH1UjnnqEeqbbo-112" value="" style="endArrow=none;html=1;rounded=0;entryX=0;entryY=0.5;entryDx=0;entryDy=0;" edge="1" parent="1" target="ch3_BCZH1UjnnqEeqbbo-92">
          <mxGeometry width="50" height="50" relative="1" as="geometry">
            <mxPoint x="1650" y="850" as="sourcePoint" />
            <mxPoint x="1700" y="800" as="targetPoint" />
          </mxGeometry>
        </mxCell>
        <mxCell id="ch3_BCZH1UjnnqEeqbbo-113" value="" style="endArrow=none;html=1;rounded=0;entryX=0;entryY=0.5;entryDx=0;entryDy=0;" edge="1" parent="1" target="ch3_BCZH1UjnnqEeqbbo-99">
          <mxGeometry width="50" height="50" relative="1" as="geometry">
            <mxPoint x="1080" y="1120" as="sourcePoint" />
            <mxPoint x="1130" y="1070" as="targetPoint" />
          </mxGeometry>
        </mxCell>
        <mxCell id="ch3_BCZH1UjnnqEeqbbo-114" value="" style="endArrow=none;html=1;rounded=0;" edge="1" parent="1" target="ch3_BCZH1UjnnqEeqbbo-96">
          <mxGeometry width="50" height="50" relative="1" as="geometry">
            <mxPoint x="1660" y="1130" as="sourcePoint" />
            <mxPoint x="1710" y="1080" as="targetPoint" />
          </mxGeometry>
        </mxCell>
        <mxCell id="ch3_BCZH1UjnnqEeqbbo-115" value="" style="endArrow=none;html=1;rounded=0;exitX=0.911;exitY=0.618;exitDx=0;exitDy=0;exitPerimeter=0;entryX=0;entryY=0.75;entryDx=0;entryDy=0;" edge="1" parent="1" source="ch3_BCZH1UjnnqEeqbbo-99" target="ch3_BCZH1UjnnqEeqbbo-96">
          <mxGeometry width="50" height="50" relative="1" as="geometry">
            <mxPoint x="610" y="980" as="sourcePoint" />
            <mxPoint x="660" y="930" as="targetPoint" />
          </mxGeometry>
        </mxCell>
        <mxCell id="ch3_BCZH1UjnnqEeqbbo-116" value="&lt;font style=&quot;font-size: 18px;&quot;&gt;attends&lt;/font&gt;" style="rhombus;whiteSpace=wrap;html=1;fillColor=#FFCCCC;" vertex="1" parent="1">
          <mxGeometry x="912.5" y="710" width="165" height="130" as="geometry" />
        </mxCell>
        <mxCell id="ch3_BCZH1UjnnqEeqbbo-117" value="" style="endArrow=none;html=1;rounded=0;entryX=0.5;entryY=1;entryDx=0;entryDy=0;" edge="1" parent="1" target="ch3_BCZH1UjnnqEeqbbo-116">
          <mxGeometry width="50" height="50" relative="1" as="geometry">
            <mxPoint x="990" y="1070" as="sourcePoint" />
            <mxPoint x="1040" y="1020" as="targetPoint" />
          </mxGeometry>
        </mxCell>
        <mxCell id="ch3_BCZH1UjnnqEeqbbo-118" value="" style="endArrow=none;html=1;rounded=0;" edge="1" parent="1">
          <mxGeometry width="50" height="50" relative="1" as="geometry">
            <mxPoint x="980" y="720" as="sourcePoint" />
            <mxPoint x="980" y="490" as="targetPoint" />
          </mxGeometry>
        </mxCell>
        <mxCell id="ch3_BCZH1UjnnqEeqbbo-119" value="" style="endArrow=none;html=1;rounded=0;" edge="1" parent="1">
          <mxGeometry width="50" height="50" relative="1" as="geometry">
            <mxPoint x="190" y="490" as="sourcePoint" />
            <mxPoint x="980" y="490" as="targetPoint" />
          </mxGeometry>
        </mxCell>
        <mxCell id="ch3_BCZH1UjnnqEeqbbo-121" value="" style="endArrow=none;html=1;rounded=0;" edge="1" parent="1">
          <mxGeometry width="50" height="50" relative="1" as="geometry">
            <mxPoint x="190" y="490" as="sourcePoint" />
            <mxPoint x="190" y="340" as="targetPoint" />
          </mxGeometry>
        </mxCell>
        <mxCell id="ch3_BCZH1UjnnqEeqbbo-122" value="" style="endArrow=none;html=1;rounded=0;" edge="1" parent="1">
          <mxGeometry width="50" height="50" relative="1" as="geometry">
            <mxPoint x="-30" y="340" as="sourcePoint" />
            <mxPoint x="190" y="340" as="targetPoint" />
          </mxGeometry>
        </mxCell>
        <mxCell id="ch3_BCZH1UjnnqEeqbbo-123" value="" style="endArrow=none;html=1;rounded=0;entryX=0.75;entryY=1;entryDx=0;entryDy=0;" edge="1" parent="1" target="ch3_BCZH1UjnnqEeqbbo-1">
          <mxGeometry width="50" height="50" relative="1" as="geometry">
            <mxPoint x="-30" y="340" as="sourcePoint" />
            <mxPoint x="120" y="230" as="targetPoint" />
          </mxGeometry>
        </mxCell>
        <mxCell id="ch3_BCZH1UjnnqEeqbbo-124" value="" style="endArrow=none;html=1;rounded=0;exitX=0.365;exitY=0;exitDx=0;exitDy=0;entryX=0.397;entryY=0.938;entryDx=0;entryDy=0;exitPerimeter=0;entryPerimeter=0;" edge="1" parent="1" source="ch3_BCZH1UjnnqEeqbbo-72" target="ch3_BCZH1UjnnqEeqbbo-116">
          <mxGeometry width="50" height="50" relative="1" as="geometry">
            <mxPoint x="970" y="1090" as="sourcePoint" />
            <mxPoint x="1020" y="1040" as="targetPoint" />
          </mxGeometry>
        </mxCell>
        <mxCell id="ch3_BCZH1UjnnqEeqbbo-125" value="" style="endArrow=none;html=1;rounded=0;exitX=0.5;exitY=0;exitDx=0;exitDy=0;" edge="1" parent="1" source="ch3_BCZH1UjnnqEeqbbo-116">
          <mxGeometry width="50" height="50" relative="1" as="geometry">
            <mxPoint x="1010" y="720" as="sourcePoint" />
            <mxPoint x="995" y="470" as="targetPoint" />
          </mxGeometry>
        </mxCell>
        <mxCell id="ch3_BCZH1UjnnqEeqbbo-126" value="" style="endArrow=none;html=1;rounded=0;" edge="1" parent="1">
          <mxGeometry width="50" height="50" relative="1" as="geometry">
            <mxPoint x="990" y="470" as="sourcePoint" />
            <mxPoint x="210" y="470" as="targetPoint" />
          </mxGeometry>
        </mxCell>
        <mxCell id="ch3_BCZH1UjnnqEeqbbo-127" value="" style="endArrow=none;html=1;rounded=0;" edge="1" parent="1">
          <mxGeometry width="50" height="50" relative="1" as="geometry">
            <mxPoint x="210" y="470" as="sourcePoint" />
            <mxPoint x="210" y="320" as="targetPoint" />
          </mxGeometry>
        </mxCell>
        <mxCell id="ch3_BCZH1UjnnqEeqbbo-128" value="" style="endArrow=none;html=1;rounded=0;" edge="1" parent="1">
          <mxGeometry width="50" height="50" relative="1" as="geometry">
            <mxPoint x="-10" y="320" as="sourcePoint" />
            <mxPoint x="210" y="320" as="targetPoint" />
          </mxGeometry>
        </mxCell>
        <mxCell id="ch3_BCZH1UjnnqEeqbbo-129" value="" style="endArrow=none;html=1;rounded=0;entryX=0.882;entryY=1.114;entryDx=0;entryDy=0;entryPerimeter=0;" edge="1" parent="1" target="ch3_BCZH1UjnnqEeqbbo-1">
          <mxGeometry width="50" height="50" relative="1" as="geometry">
            <mxPoint x="-10" y="320" as="sourcePoint" />
            <mxPoint x="40" y="260" as="targetPoint" />
          </mxGeometry>
        </mxCell>
        <mxCell id="ch3_BCZH1UjnnqEeqbbo-131" value="&lt;font style=&quot;font-size: 24px;&quot;&gt;&lt;b&gt;Prescription&lt;/b&gt;&lt;/font&gt;" style="rounded=1;whiteSpace=wrap;html=1;fillColor=#CDA2BE;" vertex="1" parent="1">
          <mxGeometry x="-660" y="830" width="170" height="70" as="geometry" />
        </mxCell>
        <mxCell id="ch3_BCZH1UjnnqEeqbbo-132" value="&lt;font style=&quot;font-size: 18px;&quot;&gt;&lt;u&gt;Pres_ID&lt;/u&gt;&lt;/font&gt;" style="ellipse;whiteSpace=wrap;html=1;fillColor=#FFFFCC;" vertex="1" parent="1">
          <mxGeometry x="-413" y="730" width="140" height="80" as="geometry" />
        </mxCell>
        <mxCell id="ch3_BCZH1UjnnqEeqbbo-133" value="&lt;font style=&quot;font-size: 18px;&quot;&gt;PresBY&lt;/font&gt;" style="ellipse;whiteSpace=wrap;html=1;fillColor=#FFFFCC;" vertex="1" parent="1">
          <mxGeometry x="-430" y="850" width="140" height="80" as="geometry" />
        </mxCell>
        <mxCell id="ch3_BCZH1UjnnqEeqbbo-134" value="&lt;font style=&quot;font-size: 18px;&quot;&gt;Pres_Date&lt;/font&gt;" style="ellipse;whiteSpace=wrap;html=1;fillColor=#FFFFCC;" vertex="1" parent="1">
          <mxGeometry x="-490" y="980" width="140" height="80" as="geometry" />
        </mxCell>
        <mxCell id="ch3_BCZH1UjnnqEeqbbo-137" value="" style="endArrow=none;html=1;rounded=0;" edge="1" parent="1" target="ch3_BCZH1UjnnqEeqbbo-132">
          <mxGeometry width="50" height="50" relative="1" as="geometry">
            <mxPoint x="-500" y="830" as="sourcePoint" />
            <mxPoint x="-450" y="780" as="targetPoint" />
          </mxGeometry>
        </mxCell>
        <mxCell id="ch3_BCZH1UjnnqEeqbbo-138" value="" style="endArrow=none;html=1;rounded=0;" edge="1" parent="1" target="ch3_BCZH1UjnnqEeqbbo-133">
          <mxGeometry width="50" height="50" relative="1" as="geometry">
            <mxPoint x="-490" y="880" as="sourcePoint" />
            <mxPoint x="-440" y="830" as="targetPoint" />
          </mxGeometry>
        </mxCell>
        <mxCell id="ch3_BCZH1UjnnqEeqbbo-139" value="" style="endArrow=none;html=1;rounded=0;exitX=0.75;exitY=1;exitDx=0;exitDy=0;" edge="1" parent="1" source="ch3_BCZH1UjnnqEeqbbo-131">
          <mxGeometry width="50" height="50" relative="1" as="geometry">
            <mxPoint x="-530" y="1050" as="sourcePoint" />
            <mxPoint x="-480" y="1000" as="targetPoint" />
          </mxGeometry>
        </mxCell>
        <mxCell id="ch3_BCZH1UjnnqEeqbbo-140" value="&lt;font style=&quot;font-size: 18px;&quot;&gt;Process&lt;/font&gt;" style="rhombus;whiteSpace=wrap;html=1;fillColor=#FFCCCC;" vertex="1" parent="1">
          <mxGeometry x="-650" y="570" width="170" height="110" as="geometry" />
        </mxCell>
        <mxCell id="ch3_BCZH1UjnnqEeqbbo-141" value="" style="endArrow=none;html=1;rounded=0;entryX=0.25;entryY=1;entryDx=0;entryDy=0;" edge="1" parent="1" target="ch3_BCZH1UjnnqEeqbbo-1">
          <mxGeometry width="50" height="50" relative="1" as="geometry">
            <mxPoint x="-127" y="440" as="sourcePoint" />
            <mxPoint x="-110" y="260" as="targetPoint" />
          </mxGeometry>
        </mxCell>
        <mxCell id="ch3_BCZH1UjnnqEeqbbo-142" value="" style="endArrow=none;html=1;rounded=0;entryX=0.192;entryY=1.031;entryDx=0;entryDy=0;entryPerimeter=0;" edge="1" parent="1" target="ch3_BCZH1UjnnqEeqbbo-1">
          <mxGeometry width="50" height="50" relative="1" as="geometry">
            <mxPoint x="-140" y="420" as="sourcePoint" />
            <mxPoint x="-170" y="350" as="targetPoint" />
          </mxGeometry>
        </mxCell>
        <mxCell id="ch3_BCZH1UjnnqEeqbbo-143" value="" style="endArrow=none;html=1;rounded=0;exitX=0.595;exitY=0.027;exitDx=0;exitDy=0;exitPerimeter=0;" edge="1" parent="1" source="ch3_BCZH1UjnnqEeqbbo-140">
          <mxGeometry width="50" height="50" relative="1" as="geometry">
            <mxPoint x="-260" y="590" as="sourcePoint" />
            <mxPoint x="-130" y="440" as="targetPoint" />
          </mxGeometry>
        </mxCell>
        <mxCell id="ch3_BCZH1UjnnqEeqbbo-144" value="" style="endArrow=none;html=1;rounded=0;exitX=0.5;exitY=0;exitDx=0;exitDy=0;" edge="1" parent="1" source="ch3_BCZH1UjnnqEeqbbo-140">
          <mxGeometry width="50" height="50" relative="1" as="geometry">
            <mxPoint x="-190" y="470" as="sourcePoint" />
            <mxPoint x="-140" y="420" as="targetPoint" />
          </mxGeometry>
        </mxCell>
        <mxCell id="ch3_BCZH1UjnnqEeqbbo-145" value="" style="endArrow=none;html=1;rounded=0;entryX=0.5;entryY=1;entryDx=0;entryDy=0;" edge="1" parent="1" target="ch3_BCZH1UjnnqEeqbbo-140">
          <mxGeometry width="50" height="50" relative="1" as="geometry">
            <mxPoint x="-570" y="830" as="sourcePoint" />
            <mxPoint x="-520" y="780" as="targetPoint" />
          </mxGeometry>
        </mxCell>
        <mxCell id="ch3_BCZH1UjnnqEeqbbo-146" value="" style="endArrow=none;html=1;rounded=0;entryX=0.42;entryY=1.004;entryDx=0;entryDy=0;entryPerimeter=0;exitX=0.445;exitY=-0.047;exitDx=0;exitDy=0;exitPerimeter=0;" edge="1" parent="1" source="ch3_BCZH1UjnnqEeqbbo-131" target="ch3_BCZH1UjnnqEeqbbo-140">
          <mxGeometry width="50" height="50" relative="1" as="geometry">
            <mxPoint x="-590" y="830" as="sourcePoint" />
            <mxPoint x="-540" y="780" as="targetPoint" />
          </mxGeometry>
        </mxCell>
        <mxCell id="ch3_BCZH1UjnnqEeqbbo-183" value="&lt;font style=&quot;font-size: 18px;&quot;&gt;Drug_Contain&lt;/font&gt;" style="rhombus;whiteSpace=wrap;html=1;fillColor=#FFCCCC;" vertex="1" parent="1">
          <mxGeometry x="-690" y="1095" width="170" height="110" as="geometry" />
        </mxCell>
        <mxCell id="ch3_BCZH1UjnnqEeqbbo-184" value="&lt;font style=&quot;font-size: 24px;&quot;&gt;&lt;b&gt;Drugs&lt;/b&gt;&lt;/font&gt;" style="rounded=1;whiteSpace=wrap;html=1;fillColor=#CDA2BE;" vertex="1" parent="1">
          <mxGeometry x="-680" y="1420" width="170" height="70" as="geometry" />
        </mxCell>
        <mxCell id="ch3_BCZH1UjnnqEeqbbo-185" value="" style="endArrow=none;html=1;rounded=0;entryX=0.5;entryY=1;entryDx=0;entryDy=0;exitX=0.5;exitY=0;exitDx=0;exitDy=0;" edge="1" parent="1" source="ch3_BCZH1UjnnqEeqbbo-183">
          <mxGeometry width="50" height="50" relative="1" as="geometry">
            <mxPoint x="-610" y="1080" as="sourcePoint" />
            <mxPoint x="-605" y="900" as="targetPoint" />
          </mxGeometry>
        </mxCell>
        <mxCell id="ch3_BCZH1UjnnqEeqbbo-186" value="" style="endArrow=none;html=1;rounded=0;entryX=0.585;entryY=1.039;entryDx=0;entryDy=0;entryPerimeter=0;exitX=0.571;exitY=0.029;exitDx=0;exitDy=0;exitPerimeter=0;" edge="1" parent="1" source="ch3_BCZH1UjnnqEeqbbo-183">
          <mxGeometry width="50" height="50" relative="1" as="geometry">
            <mxPoint x="-600" y="1080" as="sourcePoint" />
            <mxPoint x="-591" y="903" as="targetPoint" />
          </mxGeometry>
        </mxCell>
        <mxCell id="ch3_BCZH1UjnnqEeqbbo-187" value="" style="endArrow=none;html=1;rounded=0;entryX=0.5;entryY=1;entryDx=0;entryDy=0;" edge="1" parent="1" target="ch3_BCZH1UjnnqEeqbbo-183">
          <mxGeometry width="50" height="50" relative="1" as="geometry">
            <mxPoint x="-600" y="1420" as="sourcePoint" />
            <mxPoint x="-550" y="1300" as="targetPoint" />
          </mxGeometry>
        </mxCell>
        <mxCell id="ch3_BCZH1UjnnqEeqbbo-188" value="&lt;font style=&quot;font-size: 18px;&quot;&gt;Drug_Name&lt;/font&gt;" style="ellipse;whiteSpace=wrap;html=1;fillColor=#FFFFCC;" vertex="1" parent="1">
          <mxGeometry x="-880" y="1620" width="140" height="80" as="geometry" />
        </mxCell>
        <mxCell id="ch3_BCZH1UjnnqEeqbbo-189" value="&lt;font style=&quot;font-size: 18px;&quot;&gt;Purpose_of_Drug&lt;/font&gt;" style="ellipse;whiteSpace=wrap;html=1;fillColor=#FFFFCC;" vertex="1" parent="1">
          <mxGeometry x="-713" y="1630" width="190" height="90" as="geometry" />
        </mxCell>
        <mxCell id="ch3_BCZH1UjnnqEeqbbo-190" value="&lt;font style=&quot;font-size: 18px;&quot;&gt;Manufacture_drug&lt;/font&gt;" style="ellipse;whiteSpace=wrap;html=1;fillColor=#FFFFCC;" vertex="1" parent="1">
          <mxGeometry x="-470" y="1620" width="170" height="100" as="geometry" />
        </mxCell>
        <mxCell id="ch3_BCZH1UjnnqEeqbbo-191" value="&lt;font style=&quot;font-size: 18px;&quot;&gt;&lt;u&gt;Drug_ID&lt;/u&gt;&lt;/font&gt;" style="ellipse;whiteSpace=wrap;html=1;fillColor=#FFFFCC;" vertex="1" parent="1">
          <mxGeometry x="-1000" y="1520" width="140" height="80" as="geometry" />
        </mxCell>
        <mxCell id="ch3_BCZH1UjnnqEeqbbo-192" value="" style="endArrow=none;html=1;rounded=0;entryX=0;entryY=0.75;entryDx=0;entryDy=0;" edge="1" parent="1" target="ch3_BCZH1UjnnqEeqbbo-184">
          <mxGeometry width="50" height="50" relative="1" as="geometry">
            <mxPoint x="-870" y="1540" as="sourcePoint" />
            <mxPoint x="-820" y="1490" as="targetPoint" />
          </mxGeometry>
        </mxCell>
        <mxCell id="ch3_BCZH1UjnnqEeqbbo-193" value="" style="endArrow=none;html=1;rounded=0;entryX=0.067;entryY=1.039;entryDx=0;entryDy=0;entryPerimeter=0;" edge="1" parent="1" target="ch3_BCZH1UjnnqEeqbbo-184">
          <mxGeometry width="50" height="50" relative="1" as="geometry">
            <mxPoint x="-770" y="1630" as="sourcePoint" />
            <mxPoint x="-720" y="1580" as="targetPoint" />
          </mxGeometry>
        </mxCell>
        <mxCell id="ch3_BCZH1UjnnqEeqbbo-194" value="" style="endArrow=none;html=1;rounded=0;entryX=0.5;entryY=1;entryDx=0;entryDy=0;" edge="1" parent="1" target="ch3_BCZH1UjnnqEeqbbo-184">
          <mxGeometry width="50" height="50" relative="1" as="geometry">
            <mxPoint x="-600" y="1630" as="sourcePoint" />
            <mxPoint x="-550" y="1580" as="targetPoint" />
          </mxGeometry>
        </mxCell>
        <mxCell id="ch3_BCZH1UjnnqEeqbbo-195" value="" style="endArrow=none;html=1;rounded=0;entryX=0.881;entryY=1.022;entryDx=0;entryDy=0;entryPerimeter=0;" edge="1" parent="1" target="ch3_BCZH1UjnnqEeqbbo-184">
          <mxGeometry width="50" height="50" relative="1" as="geometry">
            <mxPoint x="-440" y="1630" as="sourcePoint" />
            <mxPoint x="-390" y="1580" as="targetPoint" />
          </mxGeometry>
        </mxCell>
        <mxCell id="ch3_BCZH1UjnnqEeqbbo-196" value="&lt;font style=&quot;font-size: 18px;&quot;&gt;Contains&lt;/font&gt;" style="rhombus;whiteSpace=wrap;html=1;fillColor=#FFCCCC;" vertex="1" parent="1">
          <mxGeometry x="-210" y="1390" width="170" height="110" as="geometry" />
        </mxCell>
        <mxCell id="ch3_BCZH1UjnnqEeqbbo-197" value="&lt;font style=&quot;font-size: 24px;&quot;&gt;&lt;b&gt;Pharmacy&lt;/b&gt;&lt;/font&gt;" style="rounded=1;whiteSpace=wrap;html=1;fillColor=#CDA2BE;" vertex="1" parent="1">
          <mxGeometry x="200" y="1420" width="170" height="70" as="geometry" />
        </mxCell>
        <mxCell id="ch3_BCZH1UjnnqEeqbbo-198" value="&lt;font style=&quot;font-size: 18px;&quot;&gt;&lt;u&gt;Pharmacy_ID&lt;/u&gt;&lt;/font&gt;" style="ellipse;whiteSpace=wrap;html=1;fillColor=#FFFFCC;" vertex="1" parent="1">
          <mxGeometry x="358" y="1190" width="170" height="100" as="geometry" />
        </mxCell>
        <mxCell id="ch3_BCZH1UjnnqEeqbbo-199" value="&lt;font style=&quot;font-size: 18px;&quot;&gt;Pharmacy_Name&lt;/font&gt;" style="ellipse;whiteSpace=wrap;html=1;fillColor=#FFFFCC;" vertex="1" parent="1">
          <mxGeometry x="490" y="1300" width="170" height="100" as="geometry" />
        </mxCell>
        <mxCell id="ch3_BCZH1UjnnqEeqbbo-200" value="&lt;font style=&quot;font-size: 18px;&quot;&gt;Pharmacy_Address&lt;/font&gt;" style="ellipse;whiteSpace=wrap;html=1;fillColor=#FFFFCC;" vertex="1" parent="1">
          <mxGeometry x="510" y="1450" width="187" height="100" as="geometry" />
        </mxCell>
        <mxCell id="ch3_BCZH1UjnnqEeqbbo-201" value="&lt;font style=&quot;font-size: 18px;&quot;&gt;City&lt;/font&gt;" style="ellipse;whiteSpace=wrap;html=1;fillColor=#FFFFCC;" vertex="1" parent="1">
          <mxGeometry x="840" y="1380" width="120" height="80" as="geometry" />
        </mxCell>
        <mxCell id="ch3_BCZH1UjnnqEeqbbo-202" value="&lt;font style=&quot;font-size: 18px;&quot;&gt;Street&lt;/font&gt;&lt;span style=&quot;color: rgba(0, 0, 0, 0); font-family: monospace; font-size: 0px; text-align: start; text-wrap: nowrap;&quot;&gt;%3CmxGraphModel%3E%3Croot%3E%3CmxCell%20id%3D%220%22%2F%3E%3CmxCell%20id%3D%221%22%20parent%3D%220%22%2F%3E%3CmxCell%20id%3D%222%22%20value%3D%22%26lt%3Bfont%20style%3D%26quot%3Bfont-size%3A%2018px%3B%26quot%3B%26gt%3BCity%26lt%3B%2Ffont%26gt%3B%22%20style%3D%22ellipse%3BwhiteSpace%3Dwrap%3Bhtml%3D1%3BfillColor%3D%23FFFFCC%3B%22%20vertex%3D%221%22%20parent%3D%221%22%3E%3CmxGeometry%20x%3D%222380%22%20y%3D%22760%22%20width%3D%22120%22%20height%3D%2280%22%20as%3D%22geometry%22%2F%3E%3C%2FmxCell%3E%3C%2Froot%3E%3C%2FmxGraphModel%3E&lt;/span&gt;" style="ellipse;whiteSpace=wrap;html=1;fillColor=#FFFFCC;" vertex="1" parent="1">
          <mxGeometry x="880" y="1490" width="120" height="80" as="geometry" />
        </mxCell>
        <mxCell id="ch3_BCZH1UjnnqEeqbbo-203" value="&lt;span style=&quot;font-size: 18px;&quot;&gt;Zip_Code&lt;/span&gt;" style="ellipse;whiteSpace=wrap;html=1;fillColor=#FFFFCC;" vertex="1" parent="1">
          <mxGeometry x="750" y="1590" width="120" height="80" as="geometry" />
        </mxCell>
        <mxCell id="ch3_BCZH1UjnnqEeqbbo-205" value="" style="endArrow=none;html=1;rounded=0;" edge="1" parent="1">
          <mxGeometry width="50" height="50" relative="1" as="geometry">
            <mxPoint x="250" y="1420" as="sourcePoint" />
            <mxPoint x="222" y="1250" as="targetPoint" />
          </mxGeometry>
        </mxCell>
        <mxCell id="ch3_BCZH1UjnnqEeqbbo-206" value="" style="endArrow=none;html=1;rounded=0;entryX=0;entryY=1;entryDx=0;entryDy=0;" edge="1" parent="1" target="ch3_BCZH1UjnnqEeqbbo-198">
          <mxGeometry width="50" height="50" relative="1" as="geometry">
            <mxPoint x="330" y="1420" as="sourcePoint" />
            <mxPoint x="380" y="1370" as="targetPoint" />
          </mxGeometry>
        </mxCell>
        <mxCell id="ch3_BCZH1UjnnqEeqbbo-207" value="" style="endArrow=none;html=1;rounded=0;" edge="1" parent="1" target="ch3_BCZH1UjnnqEeqbbo-199">
          <mxGeometry width="50" height="50" relative="1" as="geometry">
            <mxPoint x="370" y="1430" as="sourcePoint" />
            <mxPoint x="420" y="1380" as="targetPoint" />
          </mxGeometry>
        </mxCell>
        <mxCell id="ch3_BCZH1UjnnqEeqbbo-208" value="" style="endArrow=none;html=1;rounded=0;entryX=0;entryY=0.5;entryDx=0;entryDy=0;" edge="1" parent="1" target="ch3_BCZH1UjnnqEeqbbo-200">
          <mxGeometry width="50" height="50" relative="1" as="geometry">
            <mxPoint x="370" y="1480" as="sourcePoint" />
            <mxPoint x="420" y="1430" as="targetPoint" />
          </mxGeometry>
        </mxCell>
        <mxCell id="ch3_BCZH1UjnnqEeqbbo-209" value="" style="endArrow=none;html=1;rounded=0;entryX=0;entryY=0.5;entryDx=0;entryDy=0;" edge="1" parent="1" target="ch3_BCZH1UjnnqEeqbbo-201">
          <mxGeometry width="50" height="50" relative="1" as="geometry">
            <mxPoint x="680" y="1470" as="sourcePoint" />
            <mxPoint x="730" y="1420" as="targetPoint" />
          </mxGeometry>
        </mxCell>
        <mxCell id="ch3_BCZH1UjnnqEeqbbo-210" value="" style="endArrow=none;html=1;rounded=0;entryX=0;entryY=0.5;entryDx=0;entryDy=0;" edge="1" parent="1" target="ch3_BCZH1UjnnqEeqbbo-202">
          <mxGeometry width="50" height="50" relative="1" as="geometry">
            <mxPoint x="700" y="1500" as="sourcePoint" />
            <mxPoint x="750" y="1450" as="targetPoint" />
          </mxGeometry>
        </mxCell>
        <mxCell id="ch3_BCZH1UjnnqEeqbbo-211" value="" style="endArrow=none;html=1;rounded=0;entryX=0;entryY=0;entryDx=0;entryDy=0;" edge="1" parent="1" target="ch3_BCZH1UjnnqEeqbbo-203">
          <mxGeometry width="50" height="50" relative="1" as="geometry">
            <mxPoint x="670" y="1540" as="sourcePoint" />
            <mxPoint x="720" y="1490" as="targetPoint" />
          </mxGeometry>
        </mxCell>
        <mxCell id="ch3_BCZH1UjnnqEeqbbo-212" value="" style="endArrow=none;html=1;rounded=0;entryX=0.047;entryY=0.609;entryDx=0;entryDy=0;entryPerimeter=0;" edge="1" parent="1" target="ch3_BCZH1UjnnqEeqbbo-196">
          <mxGeometry width="50" height="50" relative="1" as="geometry">
            <mxPoint x="-510" y="1460" as="sourcePoint" />
            <mxPoint x="-460" y="1410" as="targetPoint" />
          </mxGeometry>
        </mxCell>
        <mxCell id="ch3_BCZH1UjnnqEeqbbo-213" value="" style="endArrow=none;html=1;rounded=0;entryX=0;entryY=0.5;entryDx=0;entryDy=0;" edge="1" parent="1" target="ch3_BCZH1UjnnqEeqbbo-196">
          <mxGeometry width="50" height="50" relative="1" as="geometry">
            <mxPoint x="-510" y="1450" as="sourcePoint" />
            <mxPoint x="-460" y="1400" as="targetPoint" />
          </mxGeometry>
        </mxCell>
        <mxCell id="ch3_BCZH1UjnnqEeqbbo-214" value="" style="endArrow=none;html=1;rounded=0;entryX=0;entryY=0.5;entryDx=0;entryDy=0;" edge="1" parent="1" target="ch3_BCZH1UjnnqEeqbbo-197">
          <mxGeometry width="50" height="50" relative="1" as="geometry">
            <mxPoint x="-40" y="1450" as="sourcePoint" />
            <mxPoint x="10" y="1400" as="targetPoint" />
          </mxGeometry>
        </mxCell>
        <mxCell id="ch3_BCZH1UjnnqEeqbbo-215" value="&lt;font style=&quot;font-size: 24px;&quot;&gt;&lt;b&gt;N&lt;/b&gt;&lt;/font&gt;" style="text;html=1;align=center;verticalAlign=middle;whiteSpace=wrap;rounded=0;" vertex="1" parent="1">
          <mxGeometry x="-680" y="1050" width="60" height="30" as="geometry" />
        </mxCell>
        <mxCell id="ch3_BCZH1UjnnqEeqbbo-216" value="&lt;font style=&quot;font-size: 24px;&quot;&gt;&lt;b&gt;M&lt;/b&gt;&lt;/font&gt;" style="text;html=1;align=center;verticalAlign=middle;whiteSpace=wrap;rounded=0;" vertex="1" parent="1">
          <mxGeometry x="-690" y="1225" width="60" height="30" as="geometry" />
        </mxCell>
        <mxCell id="ch3_BCZH1UjnnqEeqbbo-217" value="&lt;font style=&quot;font-size: 24px;&quot;&gt;&lt;b&gt;M&lt;/b&gt;&lt;/font&gt;" style="text;html=1;align=center;verticalAlign=middle;whiteSpace=wrap;rounded=0;" vertex="1" parent="1">
          <mxGeometry x="-280" y="1470" width="60" height="30" as="geometry" />
        </mxCell>
        <mxCell id="ch3_BCZH1UjnnqEeqbbo-218" value="&lt;font style=&quot;font-size: 24px;&quot;&gt;&lt;b&gt;1&lt;/b&gt;&lt;/font&gt;" style="text;html=1;align=center;verticalAlign=middle;whiteSpace=wrap;rounded=0;" vertex="1" parent="1">
          <mxGeometry x="-20" y="1470" width="60" height="30" as="geometry" />
        </mxCell>
        <mxCell id="ch3_BCZH1UjnnqEeqbbo-219" value="&lt;font style=&quot;font-size: 24px;&quot;&gt;&lt;b&gt;Specialization&lt;/b&gt;&lt;/font&gt;" style="rounded=1;whiteSpace=wrap;html=1;fillColor=#CDA2BE;" vertex="1" parent="1">
          <mxGeometry x="1920" y="90" width="230" height="75" as="geometry" />
        </mxCell>
        <mxCell id="ch3_BCZH1UjnnqEeqbbo-220" value="&lt;font style=&quot;font-size: 18px;&quot;&gt;&lt;u&gt;Spec_ID&lt;/u&gt;&lt;/font&gt;" style="ellipse;whiteSpace=wrap;html=1;fillColor=#FFFFCC;" vertex="1" parent="1">
          <mxGeometry x="2000" y="-170" width="120" height="80" as="geometry" />
        </mxCell>
        <mxCell id="ch3_BCZH1UjnnqEeqbbo-221" value="&lt;font style=&quot;font-size: 18px;&quot;&gt;Spec_Name&lt;/font&gt;" style="ellipse;whiteSpace=wrap;html=1;fillColor=#FFFFCC;" vertex="1" parent="1">
          <mxGeometry x="2170" y="-60" width="120" height="80" as="geometry" />
        </mxCell>
        <mxCell id="ch3_BCZH1UjnnqEeqbbo-224" value="" style="endArrow=none;html=1;rounded=0;entryX=0.396;entryY=1.014;entryDx=0;entryDy=0;entryPerimeter=0;" edge="1" parent="1" target="ch3_BCZH1UjnnqEeqbbo-220">
          <mxGeometry width="50" height="50" relative="1" as="geometry">
            <mxPoint x="2040" y="90" as="sourcePoint" />
            <mxPoint x="2090" y="40" as="targetPoint" />
          </mxGeometry>
        </mxCell>
        <mxCell id="ch3_BCZH1UjnnqEeqbbo-225" value="" style="endArrow=none;html=1;rounded=0;entryX=0;entryY=1;entryDx=0;entryDy=0;" edge="1" parent="1" target="ch3_BCZH1UjnnqEeqbbo-221">
          <mxGeometry width="50" height="50" relative="1" as="geometry">
            <mxPoint x="2130" y="90" as="sourcePoint" />
            <mxPoint x="2180" y="40" as="targetPoint" />
          </mxGeometry>
        </mxCell>
        <mxCell id="ch3_BCZH1UjnnqEeqbbo-226" value="" style="endArrow=none;html=1;rounded=0;exitX=1;exitY=0.5;exitDx=0;exitDy=0;" edge="1" parent="1" source="ch3_BCZH1UjnnqEeqbbo-34">
          <mxGeometry width="50" height="50" relative="1" as="geometry">
            <mxPoint x="1080" y="250" as="sourcePoint" />
            <mxPoint x="1210" y="235" as="targetPoint" />
          </mxGeometry>
        </mxCell>
        <mxCell id="ch3_BCZH1UjnnqEeqbbo-227" value="&lt;font style=&quot;font-size: 18px;&quot;&gt;Specialized&lt;/font&gt;" style="rhombus;whiteSpace=wrap;html=1;fillColor=#FFCCCC;" vertex="1" parent="1">
          <mxGeometry x="1377.5" y="70" width="145" height="120" as="geometry" />
        </mxCell>
        <mxCell id="ch3_BCZH1UjnnqEeqbbo-228" value="" style="endArrow=none;html=1;rounded=0;exitX=1;exitY=0.5;exitDx=0;exitDy=0;" edge="1" parent="1" source="ch3_BCZH1UjnnqEeqbbo-227">
          <mxGeometry width="50" height="50" relative="1" as="geometry">
            <mxPoint x="1870" y="180" as="sourcePoint" />
            <mxPoint x="1920" y="130" as="targetPoint" />
          </mxGeometry>
        </mxCell>
        <mxCell id="ch3_BCZH1UjnnqEeqbbo-229" value="" style="endArrow=none;html=1;rounded=0;" edge="1" parent="1">
          <mxGeometry width="50" height="50" relative="1" as="geometry">
            <mxPoint x="1210" y="240" as="sourcePoint" />
            <mxPoint x="1210" y="130" as="targetPoint" />
          </mxGeometry>
        </mxCell>
        <mxCell id="ch3_BCZH1UjnnqEeqbbo-230" value="" style="endArrow=none;html=1;rounded=0;entryX=0;entryY=0.5;entryDx=0;entryDy=0;" edge="1" parent="1" target="ch3_BCZH1UjnnqEeqbbo-227">
          <mxGeometry width="50" height="50" relative="1" as="geometry">
            <mxPoint x="1210" y="130" as="sourcePoint" />
            <mxPoint x="1260" y="80" as="targetPoint" />
          </mxGeometry>
        </mxCell>
        <mxCell id="ch3_BCZH1UjnnqEeqbbo-231" value="" style="endArrow=none;html=1;rounded=0;entryX=0;entryY=0.25;entryDx=0;entryDy=0;exitX=0.939;exitY=0.361;exitDx=0;exitDy=0;exitPerimeter=0;" edge="1" parent="1" source="ch3_BCZH1UjnnqEeqbbo-227" target="ch3_BCZH1UjnnqEeqbbo-219">
          <mxGeometry width="50" height="50" relative="1" as="geometry">
            <mxPoint x="1530" y="100" as="sourcePoint" />
            <mxPoint x="1580" y="50" as="targetPoint" />
          </mxGeometry>
        </mxCell>
        <mxCell id="ch3_BCZH1UjnnqEeqbbo-232" value="" style="endArrow=none;html=1;rounded=0;" edge="1" parent="1">
          <mxGeometry width="50" height="50" relative="1" as="geometry">
            <mxPoint x="930" y="250" as="sourcePoint" />
            <mxPoint x="1230" y="250" as="targetPoint" />
          </mxGeometry>
        </mxCell>
        <mxCell id="ch3_BCZH1UjnnqEeqbbo-233" value="" style="endArrow=none;html=1;rounded=0;" edge="1" parent="1">
          <mxGeometry width="50" height="50" relative="1" as="geometry">
            <mxPoint x="1230" y="250" as="sourcePoint" />
            <mxPoint x="1230" y="150" as="targetPoint" />
          </mxGeometry>
        </mxCell>
        <mxCell id="ch3_BCZH1UjnnqEeqbbo-234" value="" style="endArrow=none;html=1;rounded=0;entryX=0.127;entryY=0.664;entryDx=0;entryDy=0;entryPerimeter=0;" edge="1" parent="1" target="ch3_BCZH1UjnnqEeqbbo-227">
          <mxGeometry width="50" height="50" relative="1" as="geometry">
            <mxPoint x="1230" y="150" as="sourcePoint" />
            <mxPoint x="1280" y="100" as="targetPoint" />
          </mxGeometry>
        </mxCell>
        <mxCell id="ch3_BCZH1UjnnqEeqbbo-235" value="&lt;font style=&quot;font-size: 24px;&quot;&gt;&lt;b&gt;1&lt;/b&gt;&lt;/font&gt;" style="text;html=1;align=center;verticalAlign=middle;whiteSpace=wrap;rounded=0;" vertex="1" parent="1">
          <mxGeometry x="1530" y="60" width="60" height="30" as="geometry" />
        </mxCell>
        <mxCell id="ch3_BCZH1UjnnqEeqbbo-236" value="&lt;font style=&quot;font-size: 24px;&quot;&gt;&lt;b&gt;N&lt;/b&gt;&lt;/font&gt;" style="text;html=1;align=center;verticalAlign=middle;whiteSpace=wrap;rounded=0;" vertex="1" parent="1">
          <mxGeometry x="1310" y="80" width="60" height="30" as="geometry" />
        </mxCell>
        <mxCell id="ch3_BCZH1UjnnqEeqbbo-237" value="&lt;font style=&quot;font-size: 24px;&quot;&gt;&lt;b&gt;N&lt;/b&gt;&lt;/font&gt;" style="text;html=1;align=center;verticalAlign=middle;whiteSpace=wrap;rounded=0;" vertex="1" parent="1">
          <mxGeometry x="900" y="670" width="60" height="30" as="geometry" />
        </mxCell>
        <mxCell id="ch3_BCZH1UjnnqEeqbbo-238" value="&lt;font style=&quot;font-size: 24px;&quot;&gt;&lt;b&gt;M&lt;/b&gt;&lt;/font&gt;" style="text;html=1;align=center;verticalAlign=middle;whiteSpace=wrap;rounded=0;" vertex="1" parent="1">
          <mxGeometry x="900" y="870" width="60" height="30" as="geometry" />
        </mxCell>
        <mxCell id="ch3_BCZH1UjnnqEeqbbo-239" value="" style="ellipse;whiteSpace=wrap;html=1;fillColor=#FFFFCC;" vertex="1" parent="1">
          <mxGeometry x="100" y="1140" width="150" height="125" as="geometry" />
        </mxCell>
        <mxCell id="ch3_BCZH1UjnnqEeqbbo-240" value="&lt;font style=&quot;font-size: 18px;&quot;&gt;Contact_NO&lt;/font&gt;" style="ellipse;whiteSpace=wrap;html=1;fillColor=#FFFFCC;" vertex="1" parent="1">
          <mxGeometry x="115" y="1150" width="120" height="100" as="geometry" />
        </mxCell>
        <mxCell id="ch3_BCZH1UjnnqEeqbbo-241" value="&lt;font style=&quot;font-size: 24px;&quot;&gt;&lt;b&gt;1&lt;/b&gt;&lt;/font&gt;" style="text;html=1;align=center;verticalAlign=middle;whiteSpace=wrap;rounded=0;" vertex="1" parent="1">
          <mxGeometry x="-473" y="570" width="60" height="30" as="geometry" />
        </mxCell>
        <mxCell id="ch3_BCZH1UjnnqEeqbbo-242" value="&lt;font style=&quot;font-size: 24px;&quot;&gt;&lt;b&gt;N&lt;/b&gt;&lt;/font&gt;" style="text;html=1;align=center;verticalAlign=middle;whiteSpace=wrap;rounded=0;" vertex="1" parent="1">
          <mxGeometry x="-550" y="715" width="60" height="30" as="geometry" />
        </mxCell>
        <mxCell id="ch3_BCZH1UjnnqEeqbbo-243" value="&lt;font style=&quot;font-size: 24px;&quot;&gt;&lt;b&gt;M&lt;/b&gt;&lt;/font&gt;" style="text;html=1;align=center;verticalAlign=middle;whiteSpace=wrap;rounded=0;" vertex="1" parent="1">
          <mxGeometry x="1270" y="990" width="60" height="30" as="geometry" />
        </mxCell>
        <mxCell id="ch3_BCZH1UjnnqEeqbbo-244" value="&lt;font style=&quot;font-size: 24px;&quot;&gt;&lt;b&gt;N&lt;/b&gt;&lt;/font&gt;" style="text;html=1;align=center;verticalAlign=middle;whiteSpace=wrap;rounded=0;" vertex="1" parent="1">
          <mxGeometry x="1790" y="850" width="60" height="30" as="geometry" />
        </mxCell>
        <mxCell id="ch3_BCZH1UjnnqEeqbbo-245" value="&lt;font style=&quot;font-size: 24px;&quot;&gt;&lt;b&gt;1&lt;/b&gt;&lt;/font&gt;" style="text;html=1;align=center;verticalAlign=middle;whiteSpace=wrap;rounded=0;" vertex="1" parent="1">
          <mxGeometry x="1360" y="600" width="60" height="30" as="geometry" />
        </mxCell>
        <mxCell id="ch3_BCZH1UjnnqEeqbbo-246" value="&lt;font style=&quot;font-size: 24px;&quot;&gt;&lt;b&gt;1&lt;/b&gt;&lt;/font&gt;" style="text;html=1;align=center;verticalAlign=middle;whiteSpace=wrap;rounded=0;" vertex="1" parent="1">
          <mxGeometry x="1770" y="490" width="60" height="30" as="geometry" />
        </mxCell>
        <mxCell id="ch3_BCZH1UjnnqEeqbbo-247" value="&lt;font style=&quot;font-size: 24px;&quot;&gt;&lt;b&gt;M&lt;/b&gt;&lt;/font&gt;" style="text;html=1;align=center;verticalAlign=middle;whiteSpace=wrap;rounded=0;" vertex="1" parent="1">
          <mxGeometry x="1410" y="1195" width="60" height="30" as="geometry" />
        </mxCell>
        <mxCell id="ch3_BCZH1UjnnqEeqbbo-248" value="&lt;font style=&quot;font-size: 24px;&quot;&gt;&lt;b&gt;N&lt;/b&gt;&lt;/font&gt;" style="text;html=1;align=center;verticalAlign=middle;whiteSpace=wrap;rounded=0;" vertex="1" parent="1">
          <mxGeometry x="1750" y="1210" width="60" height="30" as="geometry" />
        </mxCell>
        <mxCell id="zrPRspyxMaaQeOh5qjKI-6" value="" style="rounded=1;whiteSpace=wrap;html=1;fillColor=#CDA2BE;" vertex="1" parent="1">
          <mxGeometry x="310" y="805" width="237" height="110" as="geometry" />
        </mxCell>
        <mxCell id="zrPRspyxMaaQeOh5qjKI-7" value="&lt;font style=&quot;font-size: 24px;&quot;&gt;&lt;b&gt;Accounts&lt;/b&gt;&lt;/font&gt;" style="rounded=1;whiteSpace=wrap;html=1;fillColor=#CDA2BE;" vertex="1" parent="1">
          <mxGeometry x="323.5" y="815" width="210" height="90" as="geometry" />
        </mxCell>
        <mxCell id="zrPRspyxMaaQeOh5qjKI-8" value="&lt;font style=&quot;font-size: 18px;&quot;&gt;&lt;u&gt;Account_ID&lt;/u&gt;&lt;/font&gt;" style="ellipse;whiteSpace=wrap;html=1;fillColor=#FFFFCC;" vertex="1" parent="1">
          <mxGeometry x="500" y="610" width="120" height="80" as="geometry" />
        </mxCell>
        <mxCell id="zrPRspyxMaaQeOh5qjKI-10" value="&lt;font style=&quot;font-size: 18px;&quot;&gt;Services_Description&lt;/font&gt;" style="ellipse;whiteSpace=wrap;html=1;fillColor=#FFFFCC;" vertex="1" parent="1">
          <mxGeometry x="610" y="785" width="190" height="95" as="geometry" />
        </mxCell>
        <mxCell id="zrPRspyxMaaQeOh5qjKI-11" value="&lt;font style=&quot;font-size: 18px;&quot;&gt;Total_Account&lt;/font&gt;" style="ellipse;whiteSpace=wrap;html=1;fillColor=#FFFFCC;" vertex="1" parent="1">
          <mxGeometry x="610" y="900" width="133" height="85" as="geometry" />
        </mxCell>
        <mxCell id="zrPRspyxMaaQeOh5qjKI-12" value="" style="rhombus;whiteSpace=wrap;html=1;fillColor=#FFCCCC;" vertex="1" parent="1">
          <mxGeometry x="183.5" y="600" width="140" height="115" as="geometry" />
        </mxCell>
        <mxCell id="zrPRspyxMaaQeOh5qjKI-13" value="&lt;font style=&quot;font-size: 18px;&quot;&gt;Has&lt;/font&gt;" style="rhombus;whiteSpace=wrap;html=1;fillColor=#FFCCCC;" vertex="1" parent="1">
          <mxGeometry x="193.5" y="612.5" width="116.5" height="90" as="geometry" />
        </mxCell>
        <mxCell id="zrPRspyxMaaQeOh5qjKI-15" value="" style="endArrow=none;html=1;rounded=0;" edge="1" parent="1">
          <mxGeometry width="50" height="50" relative="1" as="geometry">
            <mxPoint x="-60" y="380" as="sourcePoint" />
            <mxPoint x="-60" y="260" as="targetPoint" />
          </mxGeometry>
        </mxCell>
        <mxCell id="zrPRspyxMaaQeOh5qjKI-16" value="" style="endArrow=none;html=1;rounded=0;" edge="1" parent="1">
          <mxGeometry width="50" height="50" relative="1" as="geometry">
            <mxPoint x="-50" y="370" as="sourcePoint" />
            <mxPoint x="-50" y="260" as="targetPoint" />
          </mxGeometry>
        </mxCell>
        <mxCell id="zrPRspyxMaaQeOh5qjKI-17" value="" style="endArrow=none;html=1;rounded=0;" edge="1" parent="1">
          <mxGeometry width="50" height="50" relative="1" as="geometry">
            <mxPoint x="-60" y="380" as="sourcePoint" />
            <mxPoint x="100" y="380" as="targetPoint" />
          </mxGeometry>
        </mxCell>
        <mxCell id="zrPRspyxMaaQeOh5qjKI-19" value="" style="endArrow=none;html=1;rounded=0;" edge="1" parent="1">
          <mxGeometry width="50" height="50" relative="1" as="geometry">
            <mxPoint x="-50" y="370" as="sourcePoint" />
            <mxPoint x="120" y="370" as="targetPoint" />
          </mxGeometry>
        </mxCell>
        <mxCell id="zrPRspyxMaaQeOh5qjKI-20" value="" style="endArrow=none;html=1;rounded=0;" edge="1" parent="1">
          <mxGeometry width="50" height="50" relative="1" as="geometry">
            <mxPoint x="100" y="640" as="sourcePoint" />
            <mxPoint x="100" y="380" as="targetPoint" />
          </mxGeometry>
        </mxCell>
        <mxCell id="zrPRspyxMaaQeOh5qjKI-21" value="" style="endArrow=none;html=1;rounded=0;" edge="1" parent="1">
          <mxGeometry width="50" height="50" relative="1" as="geometry">
            <mxPoint x="120" y="620" as="sourcePoint" />
            <mxPoint x="120" y="370" as="targetPoint" />
          </mxGeometry>
        </mxCell>
        <mxCell id="zrPRspyxMaaQeOh5qjKI-22" value="" style="endArrow=none;html=1;rounded=0;" edge="1" parent="1">
          <mxGeometry width="50" height="50" relative="1" as="geometry">
            <mxPoint x="100" y="640" as="sourcePoint" />
            <mxPoint x="180" y="660" as="targetPoint" />
          </mxGeometry>
        </mxCell>
        <mxCell id="zrPRspyxMaaQeOh5qjKI-23" value="" style="endArrow=none;html=1;rounded=0;" edge="1" parent="1" target="zrPRspyxMaaQeOh5qjKI-12">
          <mxGeometry width="50" height="50" relative="1" as="geometry">
            <mxPoint x="120" y="620" as="sourcePoint" />
            <mxPoint x="200" y="560" as="targetPoint" />
          </mxGeometry>
        </mxCell>
        <mxCell id="zrPRspyxMaaQeOh5qjKI-24" value="" style="endArrow=none;html=1;rounded=0;" edge="1" parent="1" target="zrPRspyxMaaQeOh5qjKI-8">
          <mxGeometry width="50" height="50" relative="1" as="geometry">
            <mxPoint x="470" y="800" as="sourcePoint" />
            <mxPoint x="520" y="750" as="targetPoint" />
          </mxGeometry>
        </mxCell>
        <mxCell id="zrPRspyxMaaQeOh5qjKI-26" value="" style="endArrow=none;html=1;rounded=0;entryX=0;entryY=0.5;entryDx=0;entryDy=0;" edge="1" parent="1" target="zrPRspyxMaaQeOh5qjKI-10">
          <mxGeometry width="50" height="50" relative="1" as="geometry">
            <mxPoint x="550" y="860" as="sourcePoint" />
            <mxPoint x="600" y="810" as="targetPoint" />
          </mxGeometry>
        </mxCell>
        <mxCell id="zrPRspyxMaaQeOh5qjKI-27" value="" style="endArrow=none;html=1;rounded=0;" edge="1" parent="1" target="zrPRspyxMaaQeOh5qjKI-11">
          <mxGeometry width="50" height="50" relative="1" as="geometry">
            <mxPoint x="540" y="910" as="sourcePoint" />
            <mxPoint x="590" y="860" as="targetPoint" />
          </mxGeometry>
        </mxCell>
        <mxCell id="zrPRspyxMaaQeOh5qjKI-28" value="" style="endArrow=none;html=1;rounded=0;" edge="1" parent="1">
          <mxGeometry width="50" height="50" relative="1" as="geometry">
            <mxPoint x="390" y="800" as="sourcePoint" />
            <mxPoint x="290" y="690" as="targetPoint" />
          </mxGeometry>
        </mxCell>
        <mxCell id="zrPRspyxMaaQeOh5qjKI-29" value="" style="endArrow=none;html=1;rounded=0;exitX=0.25;exitY=0;exitDx=0;exitDy=0;entryX=0.698;entryY=0.876;entryDx=0;entryDy=0;entryPerimeter=0;" edge="1" parent="1" source="zrPRspyxMaaQeOh5qjKI-6" target="zrPRspyxMaaQeOh5qjKI-12">
          <mxGeometry width="50" height="50" relative="1" as="geometry">
            <mxPoint x="170" y="840" as="sourcePoint" />
            <mxPoint x="220" y="790" as="targetPoint" />
          </mxGeometry>
        </mxCell>
        <mxCell id="zrPRspyxMaaQeOh5qjKI-30" value="&lt;font style=&quot;font-size: 24px;&quot;&gt;&lt;b&gt;1&lt;/b&gt;&lt;/font&gt;" style="text;html=1;align=center;verticalAlign=middle;whiteSpace=wrap;rounded=0;" vertex="1" parent="1">
          <mxGeometry x="140" y="585" width="60" height="30" as="geometry" />
        </mxCell>
        <mxCell id="zrPRspyxMaaQeOh5qjKI-31" value="&lt;font style=&quot;font-size: 24px;&quot;&gt;&lt;b&gt;N&lt;/b&gt;&lt;/font&gt;" style="text;html=1;align=center;verticalAlign=middle;whiteSpace=wrap;rounded=0;" vertex="1" parent="1">
          <mxGeometry x="310" y="685" width="60" height="30" as="geometry" />
        </mxCell>
      </root>
    </mxGraphModel>
  </diagram>
</mxfile>
